<?xml version="1.0" standalone="no"?>
<!DOCTYPE svg PUBLIC "-//W3C//DTD SVG 20010904//EN"
 "http://www.w3.org/TR/2001/REC-SVG-20010904/DTD/svg10.dtd">
<svg version="1.0" xmlns="http://www.w3.org/2000/svg"
 width="700.000000pt" height="700.000000pt" viewBox="0 0 700.000000 700.000000"
 preserveAspectRatio="xMidYMid meet">
<metadata>
Created by potrace 1.11, written by Peter Selinger 2001-2013
</metadata>
<g transform="translate(0.000000,700.000000) scale(0.100000,-0.100000)"
fill="#000000" stroke="none">
<path d="M5510 6429 c-114 -18 -191 -39 -184 -50 3 -5 -2 -6 -10 -3 -8 3 -30
-1 -48 -9 -110 -47 -137 -61 -133 -66 2 -4 -4 -7 -13 -7 -25 0 -222 -126 -215
-137 3 -6 1 -7 -5 -3 -12 7 -124 -78 -115 -87 14 -14 -32 4 -127 50 -133 65
-370 147 -510 177 -118 26 -236 48 -290 56 -36 5 -74 12 -85 14 -12 2 -52 7
-90 11 -39 4 -83 9 -100 10 -61 7 -203 16 -300 21 -76 3 -1666 6 -2182 4 l-73
0 0 -603 c0 -476 -3 -604 -12 -604 -222 -7 -487 -138 -649 -322 -151 -172
-266 -468 -308 -801 -10 -75 -8 -494 3 -560 3 -19 8 -55 11 -80 5 -39 16 -106
32 -189 2 -14 13 -61 24 -105 11 -45 22 -91 24 -102 18 -81 133 -392 174 -472
5 -9 24 -46 41 -82 53 -105 99 -180 169 -270 72 -93 213 -239 276 -285 22 -17
48 -37 58 -46 9 -8 48 -33 87 -55 l70 -39 0 -557 c0 -524 1 -558 18 -559 99
-4 632 0 640 5 7 4 11 166 11 507 0 275 2 503 5 507 4 3 17 7 29 9 37 6 148
44 222 78 68 31 241 133 267 158 7 7 38 30 68 53 84 63 113 88 264 235 l140
136 121 -181 c493 -739 890 -1142 1346 -1367 86 -43 291 -114 354 -123 23 -4
52 -9 65 -12 42 -9 152 -17 215 -16 33 1 251 3 484 6 232 3 425 6 427 8 2 3
-28 46 -67 97 -39 51 -69 94 -67 96 2 1 48 33 103 70 55 37 102 70 105 74 3 4
19 17 35 29 60 45 229 219 310 317 265 323 465 710 626 1210 39 123 113 401
123 466 3 20 8 42 10 50 3 8 7 30 10 50 3 20 8 42 10 50 3 8 8 32 11 54 3 22
10 67 15 100 22 138 27 178 36 275 3 36 7 81 10 100 24 199 23 818 -2 956 -3
16 -6 38 -6 49 -2 47 -50 318 -74 415 -108 435 -295 785 -548 1022 -34 31 -63
55 -65 52 -2 -2 -11 5 -18 16 -8 11 -18 18 -23 15 -4 -3 -10 2 -14 10 -3 8
-10 15 -16 15 -6 0 -18 7 -27 15 -8 8 -19 13 -24 10 -5 -4 -9 -2 -9 2 0 14
-90 54 -102 47 -7 -4 -8 -2 -4 4 7 11 -7 16 -41 15 -7 -1 -11 3 -8 7 7 11 -43
22 -57 14 -7 -5 -8 -2 -3 6 6 10 1 12 -18 8 -15 -3 -24 -2 -22 2 6 10 -23 17
-67 16 -20 -1 -34 2 -32 5 10 17 -198 22 -286 8z m-2130 -513 c47 -3 105 -8
130 -11 25 -3 65 -7 90 -10 25 -3 72 -10 105 -16 33 -5 70 -12 82 -14 130 -22
341 -93 482 -164 l83 -42 -19 -22 c-11 -12 -30 -33 -43 -47 -12 -14 -83 -99
-156 -190 -74 -91 -140 -172 -147 -180 -8 -8 -49 -62 -93 -120 -43 -58 -82
-106 -86 -108 -5 -2 -8 -10 -8 -17 0 -7 -3 -15 -7 -17 -5 -1 -36 -41 -70 -88
-34 -47 -67 -90 -73 -97 -5 -7 -10 -17 -10 -23 0 -5 -4 -10 -8 -10 -5 0 -23
-21 -40 -47 -17 -27 -38 -57 -47 -68 -13 -16 -136 -188 -175 -245 -6 -8 -85
-120 -175 -248 -91 -128 -164 -236 -161 -240 2 -4 -98 -8 -222 -8 l-227 0 -44
71 c-303 479 -531 761 -809 1002 l-34 29 1 409 c0 226 1 437 1 470 l0 60 798
-1 c438 -1 835 -4 882 -8z m2339 -182 c44 -7 120 -46 145 -73 10 -11 24 -18
30 -14 6 3 8 2 3 -2 -4 -5 5 -17 20 -27 16 -10 24 -18 20 -18 -4 0 2 -10 14
-22 26 -29 93 -127 102 -151 4 -11 12 -15 18 -11 7 4 9 3 6 -3 -7 -11 46 -137
54 -129 2 2 5 -8 6 -22 0 -15 6 -28 12 -30 6 -2 9 -8 5 -13 -3 -5 0 -9 6 -9 6
0 9 -4 6 -9 -3 -5 5 -38 18 -74 13 -36 21 -68 18 -71 -3 -3 0 -6 7 -6 7 0 10
-4 7 -9 -4 -5 -2 -21 4 -35 11 -29 10 -25 40 -176 22 -108 31 -162 35 -215 2
-16 4 -30 5 -30 2 0 6 -70 10 -170 2 -38 8 -76 14 -84 8 -11 8 -13 -1 -7 -7 4
-13 2 -13 -3 0 -6 6 -11 13 -12 9 0 9 -2 0 -6 -8 -3 -10 -11 -5 -21 9 -21 8
-94 -2 -110 -4 -7 -2 -12 6 -13 10 0 11 -2 0 -6 -10 -4 -10 -8 0 -21 7 -9 8
-13 3 -10 -7 4 -11 -18 -11 -65 -1 -74 -12 -279 -18 -332 -2 -16 -7 -61 -11
-100 -10 -108 -20 -178 -40 -295 -23 -129 -25 -140 -40 -206 -8 -34 -16 -73
-19 -85 -5 -27 -47 -180 -78 -284 -36 -123 -128 -356 -189 -484 -194 -400
-428 -678 -703 -831 -48 -28 -60 -31 -67 -19 -4 8 -34 49 -66 91 -32 42 -65
86 -73 99 -8 12 -25 34 -36 48 -12 14 -74 96 -139 181 -64 85 -182 241 -261
345 -79 105 -212 280 -295 390 -84 110 -247 326 -363 480 -116 154 -213 282
-216 285 -29 27 -69 90 -58 91 7 0 20 2 28 3 8 2 42 6 75 10 391 41 831 180
1095 343 85 53 74 46 160 115 242 194 394 458 446 777 10 60 12 361 3 421 -22
149 -63 280 -134 422 l-34 67 62 39 c34 22 82 49 105 61 55 28 179 60 212 55
14 -2 41 -7 59 -10z m-938 -701 c27 -133 4 -333 -55 -466 -65 -148 -186 -289
-331 -387 -118 -80 -279 -154 -415 -191 -25 -7 -53 -20 -64 -28 -14 -13 270
391 305 433 5 6 54 71 108 144 107 145 109 147 258 334 94 118 175 217 180
218 1 0 7 -26 14 -57z m-3753 -1846 l-3 -442 -25 52 c-13 28 -28 49 -34 46 -5
-3 -6 -2 -3 4 4 6 -2 29 -13 51 -11 23 -20 46 -20 52 0 6 -5 8 -12 4 -7 -4 -8
-3 -4 4 4 7 4 18 -1 25 -4 6 -8 14 -9 17 0 3 -4 13 -7 23 -4 9 -10 25 -14 35
-3 9 -7 19 -8 22 -3 11 -48 157 -55 180 -5 14 -11 42 -15 63 -3 21 -10 35 -15
32 -6 -3 -7 1 -4 9 3 8 1 39 -5 68 -5 29 -13 79 -16 111 -4 37 -10 55 -17 51
-7 -5 -8 -2 -2 7 10 17 5 202 -6 209 -8 6 -6 124 4 210 15 122 73 304 121 380
31 48 62 75 115 99 l45 20 3 -445 c1 -245 1 -644 0 -887z m722 700 c0 -2 -11
-3 -25 -3 -14 1 -25 5 -25 9 0 4 0 22 0 39 l0 33 25 -37 c14 -20 25 -39 25
-41z m2113 -2 c-3 -9 -8 -14 -10 -11 -3 3 -2 9 2 15 9 16 15 13 8 -4z m-1765
-529 c15 -22 32 -52 39 -66 7 -14 38 -63 68 -110 79 -123 107 -173 106 -190
-2 -38 -5 -49 -15 -47 -5 1 -10 -3 -11 -10 0 -6 -4 -15 -9 -20 -6 -5 -6 -2 -1
7 8 13 7 13 -9 1 -9 -8 -15 -20 -12 -28 3 -8 2 -12 -3 -8 -13 8 -42 -24 -34
-38 3 -7 3 -9 -2 -5 -11 10 -37 -11 -29 -23 3 -5 1 -8 -4 -7 -12 4 -84 -71
-77 -82 3 -5 0 -12 -6 -16 -8 -4 -9 -3 -5 4 4 7 3 12 -1 12 -9 0 -48 -49 -48
-61 0 -4 -4 -11 -9 -16 -5 -5 -6 -3 -2 5 4 6 3 12 -1 12 -11 0 -48 -43 -45
-52 1 -5 -5 -8 -14 -8 -8 0 -12 -5 -9 -10 4 -6 3 -9 -2 -8 -13 4 -63 -34 -57
-43 3 -5 0 -8 -8 -7 -7 2 -12 -2 -11 -9 2 -7 -4 -10 -12 -7 -8 4 -15 2 -15 -3
0 -5 -14 -17 -30 -27 -17 -9 -28 -21 -25 -26 3 -4 -3 -7 -13 -6 -9 0 -16 -4
-15 -10 1 -7 -5 -11 -15 -10 -9 0 -16 -5 -14 -12 1 -8 -2 -11 -8 -7 -6 4 -17
1 -25 -5 -8 -7 -15 -9 -15 -4 -1 13 -1 914 0 950 l0 31 186 0 185 0 27 -41z
m1319 -603 c132 -176 230 -308 581 -783 113 -151 237 -319 278 -373 l74 -98
-48 32 c-129 89 -305 251 -452 419 -159 183 -416 542 -608 852 l-73 118 31 45
32 46 28 -43 c16 -24 86 -120 157 -215z"/>
</g>
</svg>
