<?xml version="1.0" encoding="utf-8"?>
<!-- Generator: Adobe Illustrator 24.0.0, SVG Export Plug-In . SVG Version: 6.00 Build 0)  -->
<svg version="1.1" id="Layer_1" xmlns="http://www.w3.org/2000/svg" xmlns:xlink="http://www.w3.org/1999/xlink" x="0px" y="0px"
	 viewBox="0 0 431.9 96.8" style="enable-background:new 0 0 431.9 96.8;" xml:space="preserve">
<style type="text/css">
	.st0{fill:#231F20;}
	.st1{clip-path:url(#SVGID_2_);fill:url(#SVGID_3_);}
	.st2{fill:#FFCE35;}
</style>
<path d="M263.1,30l6.7,12.4h-6.3l-6.4-11.9h-4.9v11.9h-5.7V10.3h12.6c6.7,0,10.9,3.8,10.9,10C270,25.2,267.5,28.6,263.1,30L263.1,30
	L263.1,30z M258.5,25.2c3.8,0,5.8-1.7,5.8-4.9s-2-4.8-5.8-4.8h-6.2v9.6L258.5,25.2L258.5,25.2z"/>
<path d="M272.1,30.2c0-7.6,4.6-12.8,11.3-12.8c6.7,0,11.2,5.1,11.2,12.6v1.9h-17c0.2,3.9,2.4,6.5,5.9,6.5c2.7,0,4.9-1.1,6.8-4
	l3.7,2.9c-2.2,3.9-5.8,5.8-10.4,5.8C276.8,43.1,272.1,37.9,272.1,30.2 M289.3,27.8c-0.2-3.4-2.3-5.6-5.7-5.6c-3.2,0-5.6,2.4-5.8,5.6
	H289.3L289.3,27.8z"/>
<path d="M320.5,30.2c0-7.6,4.6-12.8,11.3-12.8c6.7,0,11.2,5.1,11.2,12.6v1.9h-17c0.2,3.9,2.4,6.5,5.9,6.5c2.7,0,4.9-1.1,6.8-4
	l3.7,2.9c-2.2,3.9-5.8,5.8-10.4,5.8C325.1,43.1,320.5,37.9,320.5,30.2 M337.6,27.8c-0.2-3.4-2.3-5.6-5.7-5.6c-3.2,0-5.6,2.4-5.8,5.6
	H337.6L337.6,27.8z"/>
<path d="M297,34.4l5-1.3c0.8,3.7,2.6,5.3,6.1,5.3c2.7,0,4.3-1,4.3-2.5c0-2.1-2.2-2.9-5.8-4c-4.6-1.3-8.4-2.8-8.4-7.3
	c0-4.1,3.8-7.2,8.9-7.2c4.9,0,8.9,2.8,10,7.2l-5,1.4c-0.8-2.6-2.6-3.9-5-3.9c-2.3,0-3.7,1-3.7,2.4s1.7,2.1,4.9,2.9
	c5,1.4,9.3,3.2,9.3,8.3c0,4.4-3.8,7.4-9.5,7.4C302,43.1,297.9,40,297,34.4"/>
<path d="M345.9,35.9c0-4.1,2.4-6.3,8.7-7.8c4.1-1,5.4-1.8,5.4-3.3c0-1.7-1.5-2.8-3.9-2.8c-2.8,0-4.6,1.6-5.1,4.3l-5.2-1.1
	c0.8-4.8,4.9-7.9,10.3-7.9c5.9,0,9.5,3.3,9.5,8.8v16.2H361l-0.4-2.1h-0.1c-1.2,1.8-3.6,2.8-6.6,2.8
	C349.1,43.1,345.9,40.3,345.9,35.9 M360.2,34.2V30h-0.1c-0.5,0.9-1.7,1.5-4.2,2.2c-3.4,0.9-4.6,1.8-4.6,3.3c0,1.8,1.2,2.8,3.6,2.8
	C358,38.3,360.2,36.6,360.2,34.2"/>
<path d="M370.4,18.1h4.8l0.4,2.1h0.1c1-1.6,2.8-2.6,5.1-2.6c1.1,0,2.1,0.1,2.9,0.4l-1,5.4c-1-0.3-1.8-0.4-2.6-0.4
	c-2.8,0-4.3,1.9-4.3,5.8v13.6h-5.5V18.1H370.4z"/>
<path d="M384.4,30.2c0-7.7,4.8-12.8,11.6-12.8c5.8,0,9.9,3.5,10.8,8.9l-5.3,1c-0.6-3.1-2.5-4.9-5.5-4.9c-3.7,0-6.1,3-6.1,7.8
	s2.4,7.8,6.1,7.8c3.1,0,5-1.7,5.5-4.9l5.3,1c-0.9,5.4-5,8.9-10.8,8.9C389.2,43.1,384.4,37.9,384.4,30.2"/>
<path d="M410.8,8.9h5.5v11.3h0.1c1.4-1.7,3.9-2.8,6.5-2.8c5.5,0,9.1,3.7,9.1,9.1v15.9h-5.5V27.7c0-3.3-1.8-5.1-5-5.1s-5.1,2-5.1,5.1
	v14.7h-5.5V8.9H410.8z"/>
<path d="M77.6,31.8l5.6-1.1c0.8,5.1,3.1,7.2,7.9,7.2c3.6,0,5.7-1.5,5.7-3.9c0-2.6-1.7-3.9-7.5-5.8C81.7,25.7,79,23.1,79,18.5
	c0-5.2,4.4-8.9,10.6-8.9s10.9,3.7,12,9.4L96,20.2c-1-3.6-3-5.4-6.4-5.4c-3,0-5,1.4-5,3.6c0,1.9,1.5,3,6.6,4.6
	c8.2,2.8,11.2,5.7,11.2,10.9c0,5.5-4.7,9.1-11.6,9.1C83.3,43.1,78.6,39.1,77.6,31.8"/>
<path d="M105.3,30.2c0-7.7,4.8-12.8,11.6-12.8c5.8,0,9.9,3.5,10.8,8.9l-5.3,1c-0.6-3.1-2.5-4.9-5.6-4.9c-3.7,0-6.1,3-6.1,7.8
	s2.4,7.8,6.1,7.8c3.1,0,5-1.7,5.6-4.9l5.3,1c-0.9,5.4-5,8.9-10.8,8.9C110.1,43.1,105.3,37.9,105.3,30.2"/>
<path d="M131.7,18.1h4.8l0.4,2.1h0.1c1-1.6,2.8-2.6,5.1-2.6c1.1,0,2.1,0.1,2.9,0.4l-1,5.4c-1-0.3-1.8-0.4-2.6-0.4
	c-2.8,0-4.3,1.9-4.3,5.8v13.6h-5.5V18.1H131.7z"/>
<polygon points="148,18.1 153.5,18.1 153.5,42.4 148,42.4 "/>
<path d="M158.5,18.1h5l0.4,1.9h0.1c1.6-1.6,3.9-2.6,6.7-2.6c6.4,0,10.9,5.3,10.9,12.8S177.1,43,170.7,43c-2.7,0-5.2-1.1-6.6-2.6H164
	v12.2h-5.5V18.1L158.5,18.1z M176.1,30.2c0-4.9-2.3-7.8-6.2-7.8c-3.3,0-5.8,2.5-5.8,5.8v3.9c0,3.3,2.5,5.9,5.7,5.9
	C173.7,38,176.1,35.1,176.1,30.2"/>
<path d="M185.7,18.1h5l0.4,1.9h0.1c1.6-1.6,3.9-2.6,6.6-2.6c6.4,0,10.9,5.3,10.9,12.8S204.2,43,197.8,43c-2.7,0-5.2-1.1-6.6-2.6
	h-0.1v12.2h-5.5V18.1H185.7z M203.2,30.2c0-4.9-2.3-7.8-6.2-7.8c-3.3,0-5.8,2.5-5.8,5.8v3.9c0,3.3,2.5,5.9,5.7,5.9
	C200.8,38,203.2,35.1,203.2,30.2"/>
<path d="M211,34.4l5-1.3c0.8,3.7,2.6,5.3,6.1,5.3c2.7,0,4.3-1,4.3-2.5c0-2.1-2.2-2.9-5.8-4c-4.6-1.3-8.4-2.8-8.4-7.3
	c0-4.1,3.8-7.2,8.9-7.2c4.9,0,8.9,2.8,10,7.2l-5,1.4c-0.8-2.6-2.6-3.9-5-3.9c-2.3,0-3.7,1-3.7,2.4s1.7,2.1,4.9,2.9
	c5,1.4,9.3,3.2,9.3,8.3c0,4.4-3.8,7.4-9.5,7.4C216,43.1,211.9,40,211,34.4"/>
<path d="M154,11.2c0,1.8-1.5,3.3-3.3,3.3s-3.3-1.5-3.3-3.3s1.5-3.3,3.3-3.3C152.6,7.9,154,9.4,154,11.2"/>
<path d="M77.6,31.8l5.6-1.1c0.8,5.1,3.1,7.2,7.9,7.2c3.6,0,5.7-1.5,5.7-3.9c0-2.6-1.7-3.9-7.5-5.8C81.7,25.7,79,23.1,79,18.5
	c0-5.2,4.4-8.9,10.6-8.9s10.9,3.7,12,9.4L96,20.2c-1-3.6-3-5.4-6.4-5.4c-3,0-5,1.4-5,3.6c0,1.9,1.5,3,6.6,4.6
	c8.2,2.8,11.2,5.7,11.2,10.9c0,5.5-4.7,9.1-11.6,9.1C83.3,43.1,78.6,39.1,77.6,31.8"/>
<g>
	<path class="st0" d="M98,77.8c-0.4-0.4-1.1-0.9-2-1.4l-1-0.6l1.2-0.2c2.4-0.4,4.2-1.2,5.3-2.5c1.1-1.3,1.7-3,1.7-4.9
		c0-1.5-0.3-2.9-1-4.2c-0.7-1.2-1.6-2.1-2.7-2.6s-2.9-0.7-5.1-0.7H83.2v28.1h2.6V75.9h4.4c0.9,0,1.6,0,2,0.1
		c0.6,0.2,1.2,0.4,1.7,0.8c0.6,0.4,1.2,1.1,1.8,2c0.7,0.9,1.5,2.3,2.5,4l3.3,5.8h3.4l-4.2-7.2C100,80,99,78.8,98,77.8z M93.6,73.5
		h-7.8V63.1h8.6c2,0,3.6,0.5,4.5,1.4c1,1,1.5,2.2,1.5,3.7c0,1-0.3,1.9-0.7,2.8c-0.5,0.9-1.3,1.5-2.2,1.9
		C96.6,73.3,95.3,73.5,93.6,73.5z"/>
	<path class="st0" d="M118.9,86.1C118,86.7,117,87,116,87c-1.1,0-2-0.3-2.7-0.9s-1.2-1.4-1.4-2.4c-0.1-0.7-0.2-1.9-0.2-3.8V68.7
		h-2.4v12.6c0,1.5,0.1,2.6,0.2,3.2c0.2,1,0.5,1.8,0.9,2.5s1.1,1.2,2,1.6s1.9,0.7,2.9,0.7c2.4,0,4.2-1.1,5.6-3.4l0.8-1.2v4.1h2V68.7
		h-2.4v10.8c0,1.9-0.2,3.2-0.5,4.2C120.4,84.7,119.8,85.5,118.9,86.1z"/>
	<path class="st0" d="M149.2,68.2c-2.3,0-4,1.1-5.5,3.5l-0.5,0.8l-0.3-0.9c-0.3-1.1-0.9-1.9-1.7-2.5s-1.9-0.9-3.2-0.9
		c-1.2,0-2.2,0.3-3.1,0.9c-0.9,0.6-1.7,1.4-2.2,2.3l-0.8,1.3v-4.1h-2v20.1h2.4V78.3c0-1.9,0.2-3.5,0.5-4.5c0.4-1.1,1-1.9,1.8-2.5
		s1.7-0.9,2.7-0.9c1.3,0,2.3,0.5,2.9,1.4c0.6,0.9,0.8,2.1,0.8,3.8v13.2h2.4V77c0-2.3,0.5-3.9,1.4-5c1-1.1,2.2-1.6,3.6-1.6
		c0.8,0,1.5,0.2,2.2,0.6c0.6,0.4,1,1,1.3,1.7c0.2,0.7,0.3,1.7,0.3,3.2v12.8h2.3v-14c0-2.3-0.5-4-1.4-5
		C152.3,68.7,151,68.2,149.2,68.2z"/>
	<path class="st0" d="M174,71c-0.6-0.9-1.4-1.6-2.4-2.1s-2-0.7-3.1-0.7c-2,0-3.5,0.9-4.8,2.6l-0.8,1V60.7h-2.4v28.1h2.1v-3.7
		l0.8,1.3c1.2,2,2.8,2.9,4.9,2.9c2.1,0,3.9-0.9,5.4-2.8s2.3-4.6,2.3-8.1c0-1.5-0.2-2.9-0.6-4.1C175.2,73,174.6,71.9,174,71z M172,85
		c-1.1,1.5-2.4,2.2-4,2.2c-1.9,0-3.4-1-4.4-3c-0.7-1.2-1-3-1-5.6s0.5-4.7,1.6-6.1c1.1-1.5,2.4-2.2,4-2.2c1.5,0,2.8,0.7,3.9,2.1
		c1,1.4,1.5,3.5,1.5,6.3C173.6,81.4,173.1,83.6,172,85z"/>
	<path class="st0" d="M195.6,80.4v-4.7c0-1.5-0.1-2.6-0.2-3.2c-0.2-0.9-0.5-1.7-0.9-2.2c-0.4-0.6-1.1-1.1-2-1.5s-2.2-0.6-3.8-0.6
		s-2.9,0.2-4.1,0.7c-1.2,0.5-2,1.1-2.6,2c-0.6,0.8-1,1.8-1.2,3l2.3,0.4c0.4-1.4,0.9-2.4,1.6-3c0.8-0.6,2-1,3.6-1
		c1.7,0,3,0.4,3.9,1.3c0.7,0.7,1,1.8,1,3.4c0,0.1,0,0.4,0,0.9v0.3l-0.3,0.1c-1.2,0.5-3.2,0.9-5.8,1.2c-1.2,0.2-2.2,0.3-2.8,0.5
		c-0.8,0.2-1.5,0.6-2.2,1.1c-0.6,0.5-1.1,1.1-1.5,1.9s-0.6,1.7-0.6,2.6c0,1.7,0.5,3,1.5,4s2.5,1.6,4.5,1.6c1.2,0,2.3-0.2,3.4-0.7
		c1-0.4,2.2-1.2,3.3-2.3l0.6-0.6l0.1,0.8c0.1,0.8,0.2,1.6,0.5,2.2h2.4c-0.3-0.7-0.5-1.3-0.6-2C195.7,85.8,195.6,83.8,195.6,80.4z
		 M193.2,80c0,1.6-0.2,2.9-0.5,3.7c-0.5,1.1-1.2,2-2.3,2.6c-1,0.6-2.2,1-3.5,1s-2.4-0.4-3.1-1.1c-0.7-0.7-1.1-1.6-1.1-2.7
		c0-0.7,0.2-1.3,0.5-1.9s0.8-1,1.4-1.3c0.6-0.3,1.5-0.5,2.9-0.7c2.3-0.4,4-0.8,5.1-1.3l0.6-0.3L193.2,80L193.2,80z"/>
	<path class="st0" d="M211.2,86.1c-0.9,0.6-1.9,0.9-2.9,0.9c-1.1,0-2-0.3-2.7-0.9s-1.2-1.4-1.4-2.4c-0.1-0.7-0.2-1.9-0.2-3.8V68.7
		h-2.4v12.6c0,1.5,0.1,2.6,0.2,3.2c0.2,1,0.5,1.8,0.9,2.5s1.1,1.2,2,1.6s1.9,0.7,2.9,0.7c2.4,0,4.2-1.1,5.6-3.4l0.8-1.2v4.1h2V68.7
		h-2.4v10.8c0,1.9-0.2,3.2-0.5,4.2C212.8,84.7,212.2,85.5,211.2,86.1z"/>
	<path class="st0" d="M228.8,68.2c-1.6,0-3,0.4-4.1,1.3c-1.2,0.9-2.1,2.1-2.7,3.7c-0.6,1.6-0.9,3.4-0.9,5.4c0,2.8,0.7,5.2,2.1,7.2
		c1.4,2,3.2,2.9,5.7,2.9c2,0,3.6-0.8,4.9-2.6l0.7-1v1.2c0,2.4-0.1,3.9-0.2,4.7c-0.3,1.3-0.9,2.3-1.8,3c-0.9,0.7-2.1,1.1-3.7,1.1
		c-1.5,0-2.6-0.4-3.5-1.1c-0.6-0.5-1-1.3-1.2-2.3l-2.3-0.4c0.1,1.9,0.7,3.3,1.9,4.3c1.3,1.1,3,1.6,5.2,1.6c1.8,0,3.3-0.4,4.6-1.1
		c1.2-0.7,2.1-1.8,2.7-3c0.6-1.3,0.9-3.6,0.9-6.8V68.7H235v3.4l-0.7-1C232.6,69.1,230.9,68.2,228.8,68.2z M234.7,78.5
		c0,2.8-0.5,4.8-1.6,6.2c-1.1,1.4-2.4,2-4,2s-3-0.7-4-2.1c-1-1.3-1.6-3.4-1.6-6.3c0-2.6,0.5-4.6,1.6-6s2.4-2.1,3.9-2.1
		c1.6,0,2.9,0.7,4,2.1C234.2,73.8,234.7,75.8,234.7,78.5z"/>
	<path class="st0" d="M254.7,69c-1-0.6-2.1-0.9-3.4-0.9c-2.2,0-3.9,0.9-5.3,2.7l-0.7,1V60.7h-2.4v28.1h2.4v-11c0-1.7,0.2-3,0.6-4
		c0.4-1,1-1.8,1.9-2.4s1.9-0.9,2.9-0.9c1.4,0,2.5,0.5,3.3,1.4s1.1,2.3,1.1,4.1v12.9h2.4v-13c0-2-0.2-3.5-0.6-4.5
		C256.4,70.4,255.7,69.6,254.7,69z"/>
	<path class="st0" d="M294.2,83.4l-0.1,0.1c-0.8,0.8-1.9,1.5-3.4,2.1c-3.2,1.4-6.6,1.3-9.6-0.3c-1.6-0.9-2.8-2.2-3.7-4.1
		c-0.8-1.8-1.2-4-1.2-6.6c0-2.1,0.3-4.1,1-6c0.4-1.1,1-2.1,1.7-3s1.7-1.7,2.9-2.2c1.2-0.6,2.6-0.8,4.3-0.8c1.4,0,2.6,0.3,3.8,0.8
		c1.1,0.5,2,1.3,2.6,2.2c0.5,0.8,1,1.9,1.4,3.2l2.3-0.7c-0.4-1.7-1-3.1-1.8-4.2c-0.8-1.1-2-2-3.4-2.7c-1.5-0.6-3.1-1-4.9-1
		c-2.5,0-4.7,0.6-6.7,1.7c-1.9,1.1-3.4,2.9-4.4,5.2c-1,2.4-1.6,5-1.6,7.7c0,2.8,0.5,5.3,1.6,7.5c1,2.2,2.6,3.9,4.6,5.1
		s4.3,1.8,6.8,1.8c1.8,0,3.6-0.4,5.4-1.1c1.7-0.7,3.4-1.8,5-3.2v-10h-10.2v2.6h7.6L294.2,83.4L294.2,83.4z"/>
	<path class="st0" d="M305.4,71.6l-0.8,1.6v-4.5h-2v20.1h2.4V78.2c0-1.5,0.2-3,0.5-4.3c0.3-0.9,0.7-1.6,1.3-2.1c1.2-1,2.8-1,4.3-0.2
		l0.8-2.5c-1.6-1-3.3-1.3-4.6-0.3C306.7,69.2,306.1,70.2,305.4,71.6z"/>
	<path class="st0" d="M322.3,68.2c-2.2,0-4.1,0.7-5.6,2.2c-1.8,1.8-2.8,4.6-2.8,8.3c0,3.4,0.8,6.1,2.3,7.9s3.6,2.7,6.1,2.7
		c1.6,0,3-0.4,4.3-1.2c1.3-0.8,2.3-2,3-3.4c0.7-1.5,1.1-3.6,1.1-6.2c0-3.2-0.8-5.7-2.4-7.5C326.7,69.1,324.7,68.2,322.3,68.2z
		 M326.5,85c-1.1,1.4-2.6,2.2-4.3,2.2c-1.7,0-3.2-0.7-4.3-2.2c-1.1-1.4-1.7-3.5-1.7-6.3s0.6-4.9,1.7-6.3s2.6-2.1,4.3-2.1
		c1.7,0,3.1,0.7,4.3,2.2c1.1,1.4,1.7,3.5,1.7,6.1C328.2,81.4,327.6,83.6,326.5,85z"/>
	<path class="st0" d="M345.1,86.1c-0.9,0.6-1.9,0.9-2.9,0.9c-1.1,0-2-0.3-2.7-0.9s-1.2-1.4-1.4-2.4c-0.1-0.7-0.2-1.9-0.2-3.8V68.7
		h-2.4v12.6c0,1.5,0.1,2.6,0.2,3.2c0.2,1,0.5,1.8,0.9,2.5s1.1,1.2,2,1.6s1.9,0.7,2.9,0.7c2.4,0,4.2-1.1,5.6-3.4l0.8-1.2v4.1h2V68.7
		h-2.4v10.8c0,1.9-0.2,3.2-0.5,4.2S346,85.5,345.1,86.1z"/>
	<path class="st0" d="M370.8,73.2c-0.6-1.6-1.5-2.8-2.6-3.7c-1.2-0.9-2.5-1.3-4-1.3c-1.1,0-2.1,0.2-2.9,0.7s-1.5,1.3-2.2,2.3
		l-0.8,1.2v-3.7h-2.1v28.1h2.4V85.7l0.8,1.1c0.5,0.7,1.2,1.3,2,1.8s1.7,0.7,2.7,0.7c1.4,0,2.7-0.4,3.9-1.3c1.2-0.9,2.2-2.1,2.9-3.8
		c0.7-1.7,1-3.6,1-5.6C371.7,76.6,371.4,74.8,370.8,73.2z M367.7,85c-1.1,1.4-2.4,2.2-4,2.2c-1.5,0-2.8-0.7-3.9-2.1
		c-1-1.4-1.6-3.5-1.6-6.2c0-2.8,0.6-4.9,1.7-6.4s2.5-2.3,3.9-2.3c1.5,0,2.8,0.7,3.9,2.2c1,1.4,1.6,3.5,1.6,6.2
		C369.3,81.4,368.7,83.6,367.7,85z"/>
</g>
<g>
	<g>
		<defs>
			<path id="SVGID_1_" d="M6.3,24c0-2.1,0.4-4,1.1-5.2c0.6-0.9,1.2-1.3,2.2-1.3c2.8,0,7.5,7.8,10.9,13.5l0.3,0.6
				c-3.2,3.8-5.7,5.7-7.4,5.7C9.4,37.3,6.3,30,6.3,24 M28.4,32.1c1.9-2.5,3.9-5.4,5.8-8.1c5.3-7.5,12.5-17.7,16.8-17.7
				c3.6,0,6.1,6,6.1,14.2c0,14.1-6.2,26-13.6,26C38.2,46.5,33.1,39.6,28.4,32.1 M51.1,0c-7.6,0-14.6,9.9-22,20.4
				c-1.4,1.9-2.8,3.9-4.2,5.9c-4.8-7.9-9.3-15.1-15.4-15.1c-3.2,0-5.9,1.6-7.6,4.4c-1.3,2.2-2,5.1-2,8.4c0,4.3,1.2,9,3.2,12.5
				c2.5,4.5,6.2,7,10.2,7c3.3,0,6.8-2,10.8-6.4c5.3,8.2,11.3,15.7,19.4,15.7c5.8,0,11-3.7,14.8-10.5c3.3-5.9,5.1-13.8,5.1-21.8
				c0-5.8-1.1-10.7-3.1-14.3C58.2,2.2,54.9,0,51.1,0z"/>
		</defs>
		<clipPath id="SVGID_2_">
			<use xlink:href="#SVGID_1_"  style="overflow:visible;"/>
		</clipPath>
		
			<linearGradient id="SVGID_3_" gradientUnits="userSpaceOnUse" x1="171.0616" y1="86.2523" x2="171.7731" y2="86.2523" gradientTransform="matrix(89.2499 0 0 -89.2499 -15267.2363 7724.4077)">
			<stop  offset="0" style="stop-color:#FFCE34"/>
			<stop  offset="0.2221" style="stop-color:#FFCE34"/>
			<stop  offset="0.2795" style="stop-color:#E4AF39"/>
			<stop  offset="0.3533" style="stop-color:#C78E3E"/>
			<stop  offset="0.3936" style="stop-color:#BC8140"/>
			<stop  offset="0.4275" style="stop-color:#C58C3E"/>
			<stop  offset="0.4868" style="stop-color:#DEA93A"/>
			<stop  offset="0.55" style="stop-color:#FFCE34"/>
			<stop  offset="1" style="stop-color:#FFCE34"/>
		</linearGradient>
		<rect y="0" class="st1" width="63.5" height="52.8"/>
	</g>
	<path class="st2" d="M28.4,32.1c1.9-2.5,3.9-5.4,5.8-8.1c5.3-7.5,12.5-17.7,16.8-17.7c3.6,0,6.2,6.7,6.2,15l6.2-0.7
		c0-5.8-1.1-10.7-3.1-14.3c-2.2-4-5.5-6.2-9.3-6.2c-7.6,0-14.6,9.9-22,20.4c-1.4,1.9-2.8,3.9-4.2,5.9l-4.1,5.3
		c-3.2,3.8-5.7,5.7-7.4,5.7c-4,0-7.1-7.3-7.1-13.3H0c0,4.3,1.2,9,3.2,12.5c2.5,4.5,6.2,7,10.2,7c3.3,0,6.8-2,10.8-6.4L28.4,32.1z"/>
</g>
</svg>
