<?xml version="1.0" encoding="utf-8"?>
<!-- Generator: Adobe Illustrator 24.0.2, SVG Export Plug-In . SVG Version: 6.00 Build 0)  -->
<svg version="1.1" id="Layer_1" xmlns="http://www.w3.org/2000/svg" xmlns:xlink="http://www.w3.org/1999/xlink" x="0px" y="0px"
	 viewBox="0 0 507.4 98.4" style="enable-background:new 0 0 507.4 98.4;" xml:space="preserve">
<style type="text/css">
	.st0{fill:#666666;}
	.st1{clip-path:url(#SVGID_2_);fill:url(#SVGID_3_);}
	.st2{fill:#FFCE35;}
</style>
<g>
	<path class="st0" d="M133.1,2.7H147c7.7,0,14.9,2.5,14.9,11.5c0,5.8-3.3,10-9.3,10.9l10.6,17.7h-8.6l-9.3-17h-5.2v17h-7.1V2.7z
		 M145.7,19.7c4,0,8.7-0.3,8.7-5.5c0-4.7-4.4-5.3-8.1-5.3h-6.2v10.9H145.7z"/>
	<path class="st0" d="M192.8,42.7h-6.4v-4.4h-0.1c-1.2,2.7-3.8,5-8.3,5c-7.3,0-9.9-5.1-9.9-10.7V15.6h6.8v13.7c0,3,0.2,8,5,8
		c4.5,0,6.2-3.3,6.2-6.9V15.6h6.8V42.7z"/>
	<path class="st0" d="M200.2,15.6h6.4v4.2h0.1c1.2-2.5,3.8-4.9,8.3-4.9c4.2,0,7.1,1.6,8.5,5c2-3.5,4.9-5,8.9-5
		c7.2,0,9.8,5.1,9.8,11.6v16.2h-6.8V27.4c0-3.4-1-6.3-5-6.3c-4.2,0-5.8,3.5-5.8,7v14.7h-6.8V26.6c0-3.3-1.4-5.5-4.6-5.5
		c-4.5,0-6.2,3.3-6.2,6.9v14.8h-6.8V15.6z"/>
	<path class="st0" d="M249.7,0h6.8v19.1h0.2c1.4-1.8,4.1-4.1,9.2-4.1c7.7,0,13.1,6.2,13.1,14.2c0,8-5,14.2-13.4,14.2
		c-3.8,0-7.4-1.5-9.3-4.7h-0.1v4.1h-6.4V0z M264.3,21c-5,0-8,3.9-8,8.1s3,8.1,8,8.1c5,0,8-3.9,8-8.1S269.2,21,264.3,21z"/>
	<path class="st0" d="M302.3,39h-0.2c-1.9,3.1-5.1,4.4-8.7,4.4c-5,0-9.9-2.8-9.9-8.1c0-8.8,10.3-9.4,17.1-9.4h1.7v-0.7
		c0-3.3-2.6-5.1-6.2-5.1c-2.8,0-5.4,1.1-7.2,2.8l-3.6-3.6c3-3.1,7.2-4.4,11.5-4.4c11.6,0,11.6,8.4,11.6,12.2v15.6h-6.1V39z
		 M301.9,30.6h-1.4c-3.7,0-10.2,0.3-10.2,4.2c0,2.5,2.5,3.6,4.7,3.6c4.6,0,6.8-2.4,6.8-6.2V30.6z"/>
	<path class="st0" d="M340.5,42.7H334v-4.4h-0.1c-1.2,2.7-3.8,5-8.3,5c-7.3,0-9.9-5.1-9.9-10.7V15.6h6.8v13.7c0,3,0.2,8,5,8
		c4.5,0,6.2-3.3,6.2-6.9V15.6h6.8V42.7z"/>
	<path class="st0" d="M376.1,15.6v24.7c0,9.8-4.7,16-15.3,16c-5,0-9.6-1.1-13.5-4.5l4.1-5.5c2.7,2.5,5.5,3.9,9.3,3.9
		c6.6,0,8.6-3.7,8.6-9.1v-2h-0.1c-2,2.7-5.5,4-8.9,4c-8.1,0-13.5-6.2-13.5-13.9c0-8,5-14.2,13.4-14.2c3.8,0,7.4,1.5,9.3,4.7h0.1
		v-4.1H376.1z M353.6,29.1c0,4.3,3.4,7.9,8,7.9c5,0,8.1-3.4,8.1-8c0-4.7-3.1-8-8-8C356.9,21,353.6,24.3,353.6,29.1z"/>
	<path class="st0" d="M390.6,19.4h0.1c1.1-2.3,3.8-4.5,8-4.5c7.3,0,9.9,5.1,9.9,10.7v17.1h-6.8V29c0-3-0.2-8-5-8
		c-4.5,0-6.2,3.3-6.2,6.9v14.8h-6.8V0h6.8V19.4z"/>
	<path class="st0" d="M433.1,0h6.8v42.7h-6.8V0z"/>
	<path class="st0" d="M464.7,39h-0.2c-1.9,3.1-5.1,4.4-8.7,4.4c-5,0-9.9-2.8-9.9-8.1c0-8.8,10.3-9.4,17.1-9.4h1.7v-0.7
		c0-3.3-2.6-5.1-6.2-5.1c-2.8,0-5.4,1.1-7.2,2.8l-3.6-3.6c3-3.1,7.2-4.4,11.5-4.4c11.6,0,11.6,8.4,11.6,12.2v15.6h-6.1V39z
		 M464.3,30.6h-1.4c-3.7,0-10.2,0.3-10.2,4.2c0,2.5,2.5,3.6,4.7,3.6c4.6,0,6.8-2.4,6.8-6.2V30.6z"/>
	<path class="st0" d="M478.1,0h6.8v19.1h0.2c1.4-1.8,4.1-4.1,9.2-4.1c7.7,0,13.1,6.2,13.1,14.2c0,8-5,14.2-13.4,14.2
		c-3.8,0-7.4-1.5-9.3-4.7h-0.1v4.1h-6.4V0z M492.6,21c-5,0-8,3.9-8,8.1s3,8.1,8,8.1c5,0,8-3.9,8-8.1S497.6,21,492.6,21z"/>
</g>
<g>
	<g>
		<defs>
			<path id="SVGID_1_" d="M11.3,46.1c0-3.9,0.7-7.2,2-9.4c1-1.7,2.2-2.4,3.9-2.4c5.1,0,13.6,14.2,19.8,24.5l0.6,1
				c-5.8,6.8-10.3,10.3-13.4,10.3C17.1,70.2,11.3,57,11.3,46.1 M51.5,60.8c3.5-4.6,7.1-9.7,10.6-14.7C71.6,32.6,84.7,14,92.6,14
				c6.5,0,11.1,10.8,11.1,25.8c0,25.6-11.3,47.2-24.7,47.2C69.3,87,60,74.5,51.5,60.8 M92.6,2.7c-13.8,0-26.4,17.9-39.9,37
				c-2.5,3.5-5,7.1-7.6,10.6C36.6,36,28.3,23,17.3,23c-5.8,0-10.6,2.8-13.7,8C1.2,34.9,0,40.2,0,46.1c0,7.8,2.1,16.3,5.7,22.7
				c4.6,8.2,11.2,12.7,18.6,12.7c6,0,12.3-3.7,19.6-11.6c9.6,14.9,20.5,28.4,35.2,28.4c10.5,0,20-6.8,26.8-19.1
				c5.9-10.7,9.3-25.1,9.3-39.4c0-10.4-1.9-19.4-5.6-25.9C105.5,6.7,99.5,2.7,92.6,2.7z"/>
		</defs>
		<clipPath id="SVGID_2_">
			<use xlink:href="#SVGID_1_"  style="overflow:visible;"/>
		</clipPath>
		
			<linearGradient id="SVGID_3_" gradientUnits="userSpaceOnUse" x1="82.3603" y1="100.7572" x2="83.6499" y2="100.7572" gradientTransform="matrix(89.2499 0 0 -89.2499 -7350.6479 9043.0791)">
			<stop  offset="0" style="stop-color:#FFCE34"/>
			<stop  offset="0.2221" style="stop-color:#FFCE34"/>
			<stop  offset="0.2795" style="stop-color:#E4AF39"/>
			<stop  offset="0.3533" style="stop-color:#C78E3E"/>
			<stop  offset="0.3936" style="stop-color:#BC8140"/>
			<stop  offset="0.4275" style="stop-color:#C58C3E"/>
			<stop  offset="0.4868" style="stop-color:#DEA93A"/>
			<stop  offset="0.55" style="stop-color:#FFCE34"/>
			<stop  offset="1" style="stop-color:#FFCE34"/>
		</linearGradient>
		<rect y="2.7" class="st1" width="115.1" height="95.7"/>
	</g>
	<path class="st2" d="M51.5,60.8c3.5-4.6,7.1-9.7,10.6-14.7c9.5-13.5,22.6-32.1,30.5-32.1c6.4,0,11.2,12.2,11.2,27.1l11.2-1.3
		c0-10.4-1.9-19.4-5.6-25.9c-4-7.2-10-11.2-16.9-11.2c-13.8,0-26.4,17.9-39.8,37c-2.5,3.5-5,7.1-7.6,10.6l-7.5,9.6
		c-5.8,6.8-10.3,10.3-13.4,10.3c-7.2,0-13-13.1-13-24H0C0,54,2.2,62.4,5.8,68.8c4.6,8.2,11.2,12.7,18.6,12.7c6,0,12.3-3.7,19.6-11.6
		L51.5,60.8z"/>
</g>
<g>
	<path class="st0" d="M133.4,77.8l4.3-0.4c0.2,1.7,0.7,3.1,1.4,4.2c0.7,1.1,1.9,2,3.5,2.7c1.6,0.7,3.3,1,5.3,1
		c1.7,0,3.3-0.3,4.6-0.8c1.3-0.5,2.3-1.2,3-2.1c0.6-0.9,1-1.9,1-2.9c0-1.1-0.3-2-0.9-2.8s-1.7-1.5-3.1-2c-0.9-0.4-3-0.9-6.1-1.7
		c-3.2-0.8-5.4-1.5-6.6-2.1c-1.6-0.9-2.9-1.9-3.7-3.2c-0.8-1.3-1.2-2.7-1.2-4.3c0-1.7,0.5-3.4,1.5-4.9c1-1.5,2.4-2.7,4.3-3.4
		c1.9-0.8,4-1.2,6.3-1.2c2.5,0,4.8,0.4,6.7,1.2c1.9,0.8,3.4,2,4.5,3.6c1,1.6,1.6,3.4,1.7,5.4l-4.4,0.3c-0.2-2.2-1-3.8-2.4-4.9
		c-1.4-1.1-3.4-1.7-6-1.7c-2.8,0-4.8,0.5-6,1.5c-1.3,1-1.9,2.2-1.9,3.6c0,1.2,0.4,2.3,1.3,3c0.9,0.8,3.2,1.6,6.9,2.5
		c3.7,0.8,6.2,1.6,7.6,2.2c2,0.9,3.5,2.1,4.4,3.5c1,1.4,1.4,3,1.4,4.9c0,1.8-0.5,3.6-1.6,5.2c-1,1.6-2.6,2.9-4.5,3.8
		c-2,0.9-4.2,1.3-6.6,1.3c-3.1,0-5.7-0.5-7.8-1.4c-2.1-0.9-3.8-2.3-4.9-4.1C134.1,82.1,133.4,80.1,133.4,77.8z"/>
	<path class="st0" d="M182.7,79.7l4.2,0.5c-0.5,2.9-1.6,5.1-3.5,6.7c-1.9,1.6-4.2,2.4-6.9,2.4c-3.4,0-6.1-1.1-8.2-3.3
		c-2.1-2.2-3.1-5.4-3.1-9.6c0-2.7,0.4-5,1.3-7.1c0.9-2,2.2-3.5,4.1-4.5c1.8-1,3.8-1.5,5.9-1.5c2.7,0,4.9,0.7,6.6,2.1
		c1.7,1.4,2.8,3.3,3.3,5.8l-4.1,0.6c-0.4-1.7-1.1-2.9-2.1-3.8s-2.2-1.3-3.6-1.3c-2.1,0-3.9,0.8-5.2,2.3c-1.3,1.5-2,3.9-2,7.2
		c0,3.3,0.6,5.8,1.9,7.3c1.3,1.5,3,2.3,5,2.3c1.7,0,3-0.5,4.2-1.5C181.7,83.4,182.4,81.8,182.7,79.7z"/>
	<path class="st0" d="M190.4,88.8V63.9h3.8v3.8c1-1.8,1.9-2.9,2.7-3.5c0.8-0.6,1.7-0.8,2.7-0.8c1.4,0,2.9,0.5,4.3,1.4l-1.5,3.9
		c-1-0.6-2.1-0.9-3.1-0.9c-0.9,0-1.8,0.3-2.5,0.8c-0.7,0.6-1.3,1.3-1.6,2.3c-0.5,1.5-0.7,3.1-0.7,4.9v13H190.4z"/>
	<path class="st0" d="M206.5,59.3v-4.9h4.2v4.9H206.5z M206.5,88.8V63.9h4.2v24.9H206.5z"/>
	<path class="st0" d="M217.1,98.4V63.9h3.8v3.2c0.9-1.3,1.9-2.2,3.1-2.9c1.1-0.6,2.5-0.9,4.2-0.9c2.1,0,4,0.5,5.6,1.6
		c1.6,1.1,2.9,2.6,3.7,4.6c0.8,2,1.2,4.2,1.2,6.6c0,2.5-0.5,4.8-1.4,6.9c-0.9,2-2.2,3.6-4,4.7c-1.7,1.1-3.6,1.6-5.5,1.6
		c-1.4,0-2.7-0.3-3.8-0.9c-1.1-0.6-2-1.3-2.8-2.3v12.1H217.1z M220.9,76.5c0,3.2,0.6,5.6,1.9,7.1c1.3,1.5,2.9,2.3,4.7,2.3
		c1.9,0,3.5-0.8,4.8-2.4c1.3-1.6,2-4,2-7.4c0-3.2-0.7-5.6-2-7.1c-1.3-1.6-2.9-2.4-4.7-2.4c-1.8,0-3.4,0.8-4.8,2.5
		C221.6,70.9,220.9,73.3,220.9,76.5z"/>
	<path class="st0" d="M243.8,98.4V63.9h3.8v3.2c0.9-1.3,1.9-2.2,3.1-2.9c1.1-0.6,2.5-0.9,4.2-0.9c2.1,0,4,0.5,5.6,1.6
		c1.6,1.1,2.9,2.6,3.7,4.6c0.8,2,1.2,4.2,1.2,6.6c0,2.5-0.5,4.8-1.4,6.9c-0.9,2-2.2,3.6-4,4.7c-1.7,1.1-3.6,1.6-5.5,1.6
		c-1.4,0-2.7-0.3-3.8-0.9c-1.1-0.6-2-1.3-2.8-2.3v12.1H243.8z M247.6,76.5c0,3.2,0.6,5.6,1.9,7.1c1.3,1.5,2.9,2.3,4.7,2.3
		c1.9,0,3.5-0.8,4.8-2.4c1.3-1.6,2-4,2-7.4c0-3.2-0.7-5.6-2-7.1c-1.3-1.6-2.9-2.4-4.7-2.4c-1.8,0-3.4,0.8-4.8,2.5
		C248.3,70.9,247.6,73.3,247.6,76.5z"/>
	<path class="st0" d="M268.8,81.4l4.2-0.7c0.2,1.7,0.9,3,2,3.8c1.1,0.9,2.6,1.3,4.5,1.3c1.9,0,3.4-0.4,4.3-1.2
		c0.9-0.8,1.4-1.7,1.4-2.8c0-1-0.4-1.7-1.2-2.3c-0.6-0.4-2-0.9-4.3-1.4c-3.1-0.8-5.2-1.5-6.4-2c-1.2-0.6-2.1-1.4-2.7-2.4
		c-0.6-1-0.9-2.1-0.9-3.3c0-1.1,0.3-2.1,0.8-3.1c0.5-0.9,1.2-1.7,2.1-2.4c0.7-0.5,1.6-0.9,2.7-1.2c1.1-0.3,2.3-0.5,3.6-0.5
		c2,0,3.7,0.3,5.1,0.8s2.6,1.3,3.3,2.3c0.7,1,1.2,2.2,1.5,3.9l-4.1,0.6c-0.2-1.3-0.7-2.3-1.6-3c-0.9-0.7-2.2-1.1-3.8-1.1
		c-1.9,0-3.3,0.3-4.2,1c-0.8,0.6-1.2,1.4-1.2,2.3c0,0.5,0.2,1,0.5,1.5c0.3,0.5,0.9,0.8,1.6,1.1c0.4,0.2,1.7,0.5,3.7,1.1
		c3,0.8,5.1,1.5,6.3,2c1.2,0.5,2.1,1.2,2.8,2.2c0.7,1,1,2.2,1,3.6c0,1.4-0.4,2.7-1.2,4c-0.8,1.2-2,2.2-3.6,2.9c-1.5,0.7-3.3,1-5.3,1
		c-3.2,0-5.7-0.7-7.4-2C270.4,86,269.3,84,268.8,81.4z"/>
	<path class="st0" d="M308.5,88.8V54.4h15.2c3.1,0,5.4,0.3,7,0.9c1.6,0.6,2.9,1.7,3.8,3.3c1,1.6,1.4,3.3,1.4,5.2
		c0,2.4-0.8,4.5-2.4,6.2c-1.6,1.7-4,2.7-7.3,3.2c1.2,0.6,2.1,1.1,2.7,1.7c1.3,1.2,2.6,2.7,3.8,4.6l6,9.4h-5.7l-4.6-7.2
		c-1.3-2.1-2.4-3.6-3.3-4.7c-0.9-1.1-1.6-1.9-2.3-2.3c-0.7-0.4-1.4-0.7-2.1-0.9c-0.5-0.1-1.4-0.2-2.5-0.2h-5.3v15.3H308.5z
		 M313.1,69.6h9.8c2.1,0,3.7-0.2,4.9-0.6c1.2-0.4,2.1-1.1,2.7-2.1c0.6-0.9,0.9-2,0.9-3.1c0-1.6-0.6-3-1.8-4c-1.2-1-3-1.6-5.6-1.6
		h-10.9V69.6z"/>
	<path class="st0" d="M359.6,80.8l4.4,0.5c-0.7,2.5-2,4.5-3.8,5.9c-1.9,1.4-4.2,2.1-7.1,2.1c-3.6,0-6.5-1.1-8.7-3.4
		c-2.1-2.2-3.2-5.4-3.2-9.4c0-4.2,1.1-7.4,3.2-9.8c2.2-2.3,5-3.5,8.4-3.5c3.3,0,6.1,1.1,8.2,3.4c2.1,2.3,3.2,5.5,3.2,9.6
		c0,0.2,0,0.6,0,1.1h-18.6c0.2,2.7,0.9,4.8,2.3,6.3c1.4,1.5,3.1,2.2,5.2,2.2c1.5,0,2.9-0.4,4-1.2C358.1,83.9,359,82.6,359.6,80.8z
		 M345.8,74h13.9c-0.2-2.1-0.7-3.7-1.6-4.7c-1.3-1.6-3.1-2.4-5.2-2.4c-1.9,0-3.6,0.6-4.9,1.9C346.6,70.1,345.9,71.8,345.8,74z"/>
	<path class="st0" d="M367.6,81.4l4.2-0.7c0.2,1.7,0.9,3,2,3.8c1.1,0.9,2.6,1.3,4.5,1.3c1.9,0,3.4-0.4,4.3-1.2
		c0.9-0.8,1.4-1.7,1.4-2.8c0-1-0.4-1.7-1.2-2.3c-0.6-0.4-2-0.9-4.3-1.4c-3.1-0.8-5.2-1.5-6.4-2c-1.2-0.6-2.1-1.4-2.7-2.4
		s-0.9-2.1-0.9-3.3c0-1.1,0.3-2.1,0.8-3.1c0.5-0.9,1.2-1.7,2.1-2.4c0.7-0.5,1.6-0.9,2.7-1.2c1.1-0.3,2.3-0.5,3.6-0.5
		c2,0,3.7,0.3,5.1,0.8c1.5,0.6,2.6,1.3,3.3,2.3c0.7,1,1.2,2.2,1.5,3.9l-4.1,0.6c-0.2-1.3-0.7-2.3-1.6-3c-0.9-0.7-2.2-1.1-3.8-1.1
		c-1.9,0-3.3,0.3-4.1,1c-0.8,0.6-1.2,1.4-1.2,2.3c0,0.5,0.2,1,0.5,1.5c0.3,0.5,0.9,0.8,1.6,1.1c0.4,0.2,1.7,0.5,3.7,1.1
		c3,0.8,5.1,1.5,6.3,2c1.2,0.5,2.1,1.2,2.8,2.2c0.7,1,1,2.2,1,3.6c0,1.4-0.4,2.7-1.2,4c-0.8,1.2-2,2.2-3.6,2.9c-1.5,0.7-3.3,1-5.3,1
		c-3.2,0-5.7-0.7-7.4-2C369.2,86,368.1,84,367.6,81.4z"/>
	<path class="st0" d="M410.4,80.8l4.4,0.5c-0.7,2.5-2,4.5-3.8,5.9c-1.9,1.4-4.2,2.1-7.1,2.1c-3.6,0-6.5-1.1-8.7-3.4
		c-2.1-2.2-3.2-5.4-3.2-9.4c0-4.2,1.1-7.4,3.2-9.8c2.2-2.3,5-3.5,8.4-3.5c3.3,0,6.1,1.1,8.2,3.4c2.1,2.3,3.2,5.5,3.2,9.6
		c0,0.2,0,0.6,0,1.1h-18.6c0.2,2.7,0.9,4.8,2.3,6.3c1.4,1.5,3.1,2.2,5.2,2.2c1.5,0,2.9-0.4,4-1.2C408.9,83.9,409.7,82.6,410.4,80.8z
		 M396.5,74h13.9c-0.2-2.1-0.7-3.7-1.6-4.7c-1.3-1.6-3.1-2.4-5.2-2.4c-1.9,0-3.6,0.6-4.9,1.9C397.4,70.1,396.6,71.8,396.5,74z"/>
	<path class="st0" d="M436.3,85.7c-1.6,1.3-3.1,2.3-4.5,2.8c-1.4,0.5-3,0.8-4.7,0.8c-2.7,0-4.8-0.7-6.3-2c-1.5-1.3-2.2-3-2.2-5.1
		c0-1.2,0.3-2.3,0.8-3.3c0.6-1,1.3-1.8,2.2-2.4c0.9-0.6,1.9-1.1,3-1.4c0.8-0.2,2.1-0.4,3.8-0.6c3.4-0.4,5.9-0.9,7.5-1.5
		c0-0.6,0-0.9,0-1.1c0-1.7-0.4-2.9-1.2-3.6c-1.1-1-2.7-1.4-4.8-1.4c-2,0-3.5,0.3-4.4,1c-0.9,0.7-1.6,1.9-2.1,3.7l-4.1-0.6
		c0.4-1.8,1-3.2,1.9-4.3c0.9-1.1,2.1-1.9,3.7-2.5c1.6-0.6,3.5-0.9,5.7-0.9c2.1,0,3.9,0.2,5.2,0.8c1.3,0.5,2.3,1.1,2.9,1.9
		c0.6,0.8,1.1,1.7,1.3,2.9c0.1,0.7,0.2,2,0.2,3.9v5.6c0,3.9,0.1,6.4,0.3,7.4c0.2,1,0.5,2,1.1,3h-4.4
		C436.7,87.9,436.4,86.9,436.3,85.7z M435.9,76.3c-1.5,0.6-3.8,1.2-6.9,1.6c-1.7,0.3-3,0.5-3.7,0.8c-0.7,0.3-1.3,0.8-1.7,1.4
		c-0.4,0.6-0.6,1.3-0.6,2c0,1.1,0.4,2.1,1.3,2.8c0.9,0.8,2.1,1.1,3.7,1.1c1.6,0,3.1-0.4,4.3-1.1c1.3-0.7,2.2-1.7,2.8-2.9
		c0.5-1,0.7-2.4,0.7-4.2V76.3z"/>
	<path class="st0" d="M446.7,88.8V63.9h3.8v3.8c1-1.8,1.9-2.9,2.7-3.5c0.8-0.6,1.7-0.8,2.7-0.8c1.4,0,2.9,0.5,4.3,1.4l-1.5,3.9
		c-1-0.6-2.1-0.9-3.1-0.9c-0.9,0-1.8,0.3-2.5,0.8c-0.7,0.6-1.3,1.3-1.6,2.3c-0.5,1.5-0.7,3.1-0.7,4.9v13H446.7z"/>
	<path class="st0" d="M479,79.7l4.1,0.5c-0.5,2.9-1.6,5.1-3.5,6.7c-1.9,1.6-4.2,2.4-6.9,2.4c-3.4,0-6.1-1.1-8.2-3.3
		c-2.1-2.2-3.1-5.4-3.1-9.6c0-2.7,0.4-5,1.3-7.1c0.9-2,2.2-3.5,4.1-4.5c1.8-1,3.8-1.5,5.9-1.5c2.7,0,4.9,0.7,6.6,2.1
		c1.7,1.4,2.8,3.3,3.3,5.8l-4.1,0.6c-0.4-1.7-1.1-2.9-2.1-3.8c-1-0.8-2.2-1.3-3.6-1.3c-2.1,0-3.9,0.8-5.2,2.3c-1.3,1.5-2,3.9-2,7.2
		c0,3.3,0.6,5.8,1.9,7.3s3,2.3,5,2.3c1.7,0,3-0.5,4.1-1.5C478,83.4,478.7,81.8,479,79.7z"/>
	<path class="st0" d="M486.8,88.8V54.4h4.2v12.3c2-2.3,4.5-3.4,7.5-3.4c1.8,0,3.4,0.4,4.8,1.1c1.4,0.7,2.3,1.7,2.9,3
		c0.6,1.3,0.9,3.1,0.9,5.6v15.8h-4.2V73c0-2.1-0.5-3.6-1.4-4.6c-0.9-1-2.2-1.4-3.9-1.4c-1.3,0-2.4,0.3-3.5,1
		c-1.1,0.6-1.9,1.5-2.4,2.6c-0.5,1.1-0.7,2.6-0.7,4.6v13.6H486.8z"/>
</g>
</svg>
