<?xml version="1.0" encoding="utf-8"?>
<!-- Generator: Adobe Illustrator 27.3.1, SVG Export Plug-In . SVG Version: 6.00 Build 0)  -->
<svg version="1.1" id="Layer_1" xmlns="http://www.w3.org/2000/svg" xmlns:xlink="http://www.w3.org/1999/xlink" x="0px" y="0px"
	 viewBox="0 0 431.9 96.8" style="enable-background:new 0 0 431.9 96.8;" xml:space="preserve">
<style type="text/css">
	.st0{fill:#223E7C;}
	.st1{fill:#EF4E25;}
	.st2{font-family:'Gentona-Light';}
	.st3{font-size:38.8238px;}
</style>
<g>
	<path class="st0" d="M84.8,24.4v-0.7c0.7,0,1.1-0.1,1.2-0.1c0.1-0.1,0.2-0.2,0.3-0.3c0.1-0.2,0.1-1,0.1-2.2v-5.2c0-1.4,0-2.2,0-2.4
		h-1.2c-0.6,0-1.2,0-1.6,0.1c-0.2,0-0.3,0-0.3,0.1c0,0-0.1,0.1-0.1,0.3c-0.1,0.4-0.1,0.9-0.1,1.4h-0.7c0-1.2,0-1.8,0-2
		c0-0.3,0-0.5-0.1-0.8l0.1-0.1c0.3,0,0.6,0,0.9,0.1c0.5,0,1.4,0,2.9,0h3.5c1.5,0,2.4,0,2.9,0c0.3,0,0.5,0,0.8-0.1l0.1,0.1
		c-0.1,0.4-0.1,0.7-0.1,0.9c0,0,0,0.7,0,1.9h-0.7c0-0.4,0-0.9-0.1-1.3c0-0.2-0.1-0.3-0.1-0.4c0,0-0.1,0-0.3-0.1
		c-0.5,0-1-0.1-1.7-0.1h-1.2c0,0.2,0,1,0,2.4v5.2c0,1.2,0,2,0.1,2.2c0,0.1,0.1,0.3,0.3,0.3c0.1,0.1,0.5,0.1,1.2,0.1v0.7
		c-1.1-0.1-2.1-0.1-2.8-0.1C86.8,24.3,85.8,24.3,84.8,24.4"/>
	<path class="st0" d="M103.7,23.7v0.7c-0.9,0-1.4,0-1.7,0c-0.2,0-0.8,0-1.8,0l-0.1-0.1l0.1-1.8c0-0.3,0-0.7,0-1.1v-1.7
		c0-0.8-0.1-1.3-0.4-1.6c-0.3-0.3-0.6-0.5-1.1-0.5c-0.4,0-0.7,0.1-0.9,0.3c-0.3,0.2-0.5,0.4-0.6,0.7c-0.1,0.1-0.1,0.3-0.1,0.7v1.1
		c0,0.5,0,1,0,1.7c0,0.7,0,1.1,0.1,1.2c0,0.1,0,0.1,0.1,0.2c0,0,0.1,0.1,0.1,0.1c0.1,0,0.2,0.1,0.4,0.1l0.7,0v0.7
		c-1.6,0-2.4-0.1-2.6-0.1l-2.1,0.1v-0.7c0.5,0,0.8,0,0.9-0.1c0.1,0,0.2-0.1,0.2-0.1c0,0,0.1-0.1,0.1-0.2c0-0.2,0.1-0.7,0.1-1.6
		c0-0.9,0-1.7,0-2.4v-2.8c0-0.9,0-1.8-0.1-2.5c0-0.4,0-0.6-0.1-0.7c0,0-0.1-0.1-0.1-0.1c-0.1,0-0.2-0.1-0.3-0.1
		c-0.1,0-0.3,0-0.8-0.1v-0.6c0.8-0.1,1.4-0.2,1.8-0.3c0.4-0.1,0.9-0.2,1.6-0.4l0.2,0.1l-0.1,2.1c0,1,0,2,0,2.9v0.8l1.5-1.3
		c0.4-0.2,0.8-0.2,1.3-0.2c0.5,0,0.9,0.1,1.2,0.2c0.4,0.1,0.6,0.3,0.8,0.6c0.2,0.2,0.3,0.5,0.4,0.8c0.1,0.3,0.1,0.7,0.1,1.1
		c0,0.2,0,0.6,0,1.4c0,0.5,0,1,0,1.4c0,1.1,0,1.7,0.1,1.9c0,0.1,0.1,0.2,0.2,0.3C102.8,23.7,103.1,23.7,103.7,23.7"/>
	<path class="st0" d="M109.9,19.5c0-0.9-0.1-1.6-0.4-1.9c-0.3-0.4-0.6-0.5-1.1-0.5c-0.4,0-0.8,0.2-1.1,0.6c-0.3,0.4-0.4,1-0.4,1.9
		c0.3,0.1,0.9,0.1,1.7,0.1C109.1,19.5,109.6,19.5,109.9,19.5 M111.9,23l-0.4,0.8c-0.5,0.3-1,0.5-1.5,0.6c-0.4,0.1-0.8,0.1-1.3,0.1
		c-0.6,0-1.1-0.1-1.5-0.2c-0.4-0.1-0.8-0.3-1.1-0.5c-0.3-0.2-0.6-0.5-0.8-0.8c-0.2-0.3-0.4-0.7-0.5-1.2c-0.1-0.4-0.2-0.9-0.2-1.4
		c0-0.8,0.1-1.4,0.3-2c0.1-0.4,0.3-0.7,0.5-0.9c0.1-0.1,0.4-0.3,0.9-0.6c0.5-0.3,0.8-0.5,1.1-0.6c0.4-0.2,0.9-0.3,1.4-0.3
		c0.8,0,1.4,0.2,1.9,0.5c0.5,0.3,0.8,0.7,1,1.2c0.2,0.5,0.3,1.1,0.3,1.8c0,0.2,0,0.3,0,0.5c-0.1,0-0.4,0.1-0.7,0.2
		c-0.4,0.1-0.7,0.1-0.8,0.1c-0.4,0-1,0.1-1.7,0.1c-0.7,0-1.1,0-1.2,0c-0.1,0-0.2,0-0.3,0H107c0,0.9,0.3,1.6,0.8,2.2
		c0.5,0.5,1.2,0.8,1.9,0.8c0.3,0,0.6,0,0.9-0.1c0.3-0.1,0.6-0.2,1.1-0.4L111.9,23z"/>
	<path class="st0" d="M117.5,24.4v-0.8c0.5,0,0.9,0,1-0.1c0.1,0,0.2-0.1,0.3-0.1c0.1,0,0.1-0.1,0.1-0.2c0.1-0.2,0.1-0.6,0.1-1.2
		l0-1.7v-4l0-1.7c0-0.6,0-1-0.1-1.2c0-0.1-0.1-0.1-0.1-0.2c-0.1,0-0.1-0.1-0.3-0.1c-0.1,0-0.5,0-1-0.1v-0.8c0.9,0,1.9,0.1,3,0.1
		c0.9,0,1.8,0,2.5-0.1V13c-0.6,0-1,0-1.1,0.1c-0.1,0-0.2,0.1-0.2,0.1c0,0.1-0.1,0.3-0.1,0.6c-0.1,0.6-0.1,1.4-0.1,2.5v1
		c0.4,0,1.3,0.1,2.6,0.1c1.7,0,2.7,0,3.1-0.1v-1c0-0.9,0-1.5,0-1.7c0-0.8-0.1-1.2-0.1-1.3c0-0.1,0-0.1-0.1-0.2c0,0-0.1-0.1-0.2-0.1
		c-0.1,0-0.5-0.1-1.1-0.1v-0.8c0.7,0,1.6,0.1,2.5,0.1c1,0,2,0,3-0.1V13c-0.5,0-0.9,0-1,0.1c-0.1,0-0.2,0.1-0.3,0.1
		c-0.1,0-0.1,0.1-0.1,0.2c-0.1,0.2-0.1,0.6-0.1,1.2l0,1.7v4l0,1.7c0,0.6,0,1.1,0.1,1.2c0,0.1,0.1,0.1,0.1,0.2c0.1,0,0.1,0.1,0.3,0.1
		c0.1,0,0.5,0,1,0.1v0.8c-0.9,0-1.9-0.1-3-0.1c-0.9,0-1.8,0-2.5,0.1v-0.8c0.6,0,1,0,1.1-0.1c0.1,0,0.2-0.1,0.2-0.1
		c0-0.1,0.1-0.3,0.1-0.6c0-0.6,0.1-1.4,0.1-2.5v-1.8c-0.3,0-1.1-0.1-2.5-0.1c-1.3,0-2.2,0-2.7,0c-0.2,0-0.4,0-0.5,0v1.8
		c0,0.9,0,1.5,0,1.7c0,0.8,0.1,1.2,0.1,1.3c0,0.1,0,0.1,0.1,0.2c0,0,0.1,0.1,0.2,0.1c0.1,0,0.5,0,1.1,0.1v0.8
		c-0.7,0-1.6-0.1-2.5-0.1C119.4,24.3,118.4,24.3,117.5,24.4"/>
	<path class="st0" d="M137.4,19.5c0-0.9-0.1-1.6-0.4-1.9c-0.3-0.4-0.6-0.5-1.1-0.5c-0.4,0-0.8,0.2-1.1,0.6c-0.3,0.4-0.4,1-0.4,1.9
		c0.3,0.1,0.9,0.1,1.7,0.1C136.6,19.5,137,19.5,137.4,19.5 M139.4,23l-0.4,0.8c-0.5,0.3-1,0.5-1.5,0.6c-0.4,0.1-0.8,0.1-1.3,0.1
		c-0.6,0-1.1-0.1-1.5-0.2c-0.4-0.1-0.8-0.3-1.1-0.5c-0.3-0.2-0.6-0.5-0.8-0.8c-0.2-0.3-0.4-0.7-0.5-1.2c-0.1-0.4-0.2-0.9-0.2-1.4
		c0-0.8,0.1-1.4,0.3-2c0.1-0.4,0.3-0.7,0.5-0.9c0.1-0.1,0.4-0.3,0.9-0.6c0.5-0.3,0.8-0.5,1.1-0.6c0.4-0.2,0.9-0.3,1.4-0.3
		c0.8,0,1.4,0.2,1.9,0.5c0.5,0.3,0.8,0.7,1.1,1.2c0.2,0.5,0.3,1.1,0.3,1.8c0,0.2,0,0.3,0,0.5c-0.1,0-0.4,0.1-0.7,0.2
		c-0.4,0.1-0.7,0.1-0.8,0.1c-0.4,0-1,0.1-1.7,0.1c-0.7,0-1.1,0-1.2,0c-0.1,0-0.2,0-0.3,0h-0.6c0,0.9,0.3,1.6,0.8,2.2
		c0.5,0.5,1.2,0.8,1.9,0.8c0.3,0,0.6,0,0.9-0.1c0.3-0.1,0.6-0.2,1.1-0.4L139.4,23z"/>
	<path class="st0" d="M145.6,23.7v0.7c-0.7,0-1.4,0-2.2,0c-0.9,0-1.8,0-2.8,0v-0.7c0.4,0,0.8,0,0.9-0.1c0.1,0,0.1-0.1,0.2-0.1
		c0.1-0.1,0.1-0.3,0.1-0.6l0-0.8c0-0.2,0-0.4,0-0.8v-1.1c0-0.5,0-1.1,0-1.9c0-0.4,0-0.6-0.1-0.6c0,0-0.1-0.1-0.2-0.1
		c-0.1,0-0.4-0.1-1-0.1v-0.7c1.1-0.2,1.7-0.3,2.1-0.4c0.3-0.1,0.7-0.2,1.1-0.4l0.2,0.1l0,1.7c0.4-0.4,0.7-0.7,0.9-1
		c0.3-0.4,0.5-0.6,0.7-0.7c0.2-0.1,0.5-0.2,0.8-0.2c0.2,0,0.4,0,0.6,0.1l-0.1,1.2c0,0.7,0,1.1,0,1.2l-0.4,0.1
		c-0.1-0.2-0.3-0.3-0.4-0.4c-0.2-0.1-0.4-0.2-0.7-0.2c-0.3,0-0.6,0.1-0.9,0.3c-0.2,0.2-0.4,0.4-0.4,0.6c0,0.1,0,0.6,0,1.5v0.9l0,1.2
		c0,0.4,0,0.7,0,0.8c0,0.1,0.1,0.2,0.2,0.2c0.1,0.1,0.3,0.1,0.6,0.1L145.6,23.7z"/>
	<path class="st0" d="M150.6,18.5c0,0.4,0,1,0,1.8c0,1,0,1.7,0,2.3c0.2,0.3,0.4,0.5,0.7,0.7c0.3,0.2,0.7,0.3,1.1,0.3
		c0.4,0,0.8-0.1,1.1-0.3c0.3-0.2,0.6-0.6,0.7-1.1c0.2-0.5,0.3-1.1,0.3-1.7c0-0.9-0.2-1.6-0.6-2.1c-0.4-0.5-0.9-0.7-1.5-0.7
		c-0.4,0-0.7,0.1-1,0.3C151,18,150.8,18.2,150.6,18.5 M147.1,13v-0.6c1.3-0.1,2.4-0.4,3.3-0.8c0.1,0,0.2,0.1,0.2,0.1
		c-0.1,2.4-0.1,3.8-0.1,4.2v1.6l1-0.9c0.3-0.2,0.6-0.4,0.8-0.5c0.3-0.1,0.6-0.1,1-0.1c1,0,1.8,0.3,2.4,0.9c0.6,0.6,0.9,1.4,0.9,2.5
		c0,0.6-0.1,1.2-0.3,1.8c-0.2,0.6-0.5,1.1-0.9,1.4c-0.1,0.1-0.5,0.4-1.3,0.9c-0.8,0.5-1.2,0.8-1.3,0.9c-0.3,0.1-0.8,0.2-1.3,0.2
		c-0.4,0-0.7-0.1-1-0.2c-0.3-0.1-0.7-0.3-1.1-0.5l-0.8,0.6l-0.4-0.1c0.1-1.8,0.2-3.9,0.2-6.3c0-2.4,0-4-0.1-4.6
		c0-0.2-0.1-0.3-0.1-0.4C148.1,13.1,147.8,13.1,147.1,13"/>
	<path class="st0" d="M163.4,19.5c0-0.9-0.1-1.6-0.4-1.9c-0.3-0.4-0.6-0.5-1.1-0.5c-0.4,0-0.8,0.2-1.1,0.6c-0.3,0.4-0.4,1-0.4,1.9
		c0.3,0.1,0.9,0.1,1.7,0.1C162.6,19.5,163.1,19.5,163.4,19.5 M165.5,23l-0.4,0.8c-0.5,0.3-1,0.5-1.5,0.6c-0.4,0.1-0.8,0.1-1.3,0.1
		c-0.6,0-1.1-0.1-1.5-0.2c-0.4-0.1-0.8-0.3-1.1-0.5c-0.3-0.2-0.6-0.5-0.8-0.8c-0.2-0.3-0.4-0.7-0.5-1.2c-0.1-0.4-0.2-0.9-0.2-1.4
		c0-0.8,0.1-1.4,0.3-2c0.1-0.4,0.3-0.7,0.5-0.9c0.1-0.1,0.4-0.3,0.9-0.6c0.5-0.3,0.8-0.5,1.1-0.6c0.4-0.2,0.9-0.3,1.4-0.3
		c0.8,0,1.4,0.2,1.9,0.5c0.5,0.3,0.8,0.7,1.1,1.2c0.2,0.5,0.3,1.1,0.3,1.8c0,0.2,0,0.3,0,0.5c-0.1,0-0.4,0.1-0.7,0.2
		c-0.4,0.1-0.7,0.1-0.8,0.1c-0.4,0-1,0.1-1.7,0.1c-0.7,0-1.1,0-1.2,0c-0.1,0-0.2,0-0.3,0h-0.6c0,0.9,0.3,1.6,0.8,2.2
		c0.5,0.5,1.2,0.8,1.9,0.8c0.3,0,0.6,0,0.9-0.1c0.3-0.1,0.6-0.2,1.1-0.4L165.5,23z"/>
	<path class="st0" d="M171.6,23.7v0.7c-0.7,0-1.4,0-2.2,0c-0.9,0-1.8,0-2.8,0v-0.7c0.4,0,0.8,0,0.9-0.1c0.1,0,0.1-0.1,0.2-0.1
		c0.1-0.1,0.1-0.3,0.1-0.6l0-0.8c0-0.2,0-0.4,0-0.8v-1.1c0-0.5,0-1.1,0-1.9c0-0.4,0-0.6-0.1-0.6c0,0-0.1-0.1-0.2-0.1
		c-0.1,0-0.4-0.1-1-0.1v-0.7c1.1-0.2,1.7-0.3,2.1-0.4c0.3-0.1,0.7-0.2,1.1-0.4l0.2,0.1l0,1.7c0.4-0.4,0.7-0.7,0.9-1
		c0.3-0.4,0.5-0.6,0.7-0.7c0.2-0.1,0.5-0.2,0.8-0.2c0.2,0,0.4,0,0.6,0.1l-0.1,1.2c0,0.7,0,1.1,0,1.2l-0.4,0.1
		c-0.1-0.2-0.3-0.3-0.4-0.4c-0.2-0.1-0.4-0.2-0.7-0.2c-0.3,0-0.6,0.1-0.9,0.3c-0.2,0.2-0.4,0.4-0.4,0.6c0,0.1,0,0.6,0,1.5v0.9l0,1.2
		c0,0.4,0,0.7,0,0.8c0,0.1,0.1,0.2,0.2,0.2c0.1,0.1,0.3,0.1,0.6,0.1L171.6,23.7z"/>
	<path class="st0" d="M173.2,17.8v-0.4l0.8-0.5c0.1-0.1,0.2-0.2,0.4-0.3v-1.2c0-0.4,0-0.9-0.1-1.5c0.6-0.2,0.9-0.3,1.1-0.4
		c0,0,0.4-0.2,1.1-0.5l0.2,0.2l-0.1,0.9l-0.1,1l-0.1,1.5h0.3c0.8,0,1.3,0,1.7-0.1l-0.1,1.2c-0.1,0-0.1,0-0.2,0l-0.8,0h-0.8v2.9
		c0,0.9,0,1.4,0,1.6c0,0.3,0.1,0.5,0.3,0.6c0.2,0.2,0.4,0.2,0.7,0.2c0.2,0,0.4,0,0.5,0c0.1,0,0.3,0,0.5-0.1l0.1,0.3l-0.3,0.3
		c-0.3,0.3-0.5,0.5-0.7,0.7c-0.2,0.1-0.4,0.2-0.6,0.2c-0.2,0-0.4,0-0.5,0c-0.7,0-1.2-0.2-1.6-0.5c-0.4-0.3-0.6-0.8-0.6-1.3l0-2.9
		v-2.1h-0.2C173.8,17.8,173.5,17.8,173.2,17.8"/>
	<path class="st0" d="M192.1,12.1h0.8c0.2,0.6,0.4,1.1,0.6,1.7c0.9,2.3,1.4,3.7,1.6,4.1l1,2.6l1-3.9c0.4-1.5,0.6-2.5,0.7-2.8
		c0-0.1,0-0.2,0-0.3c0-0.1,0-0.2-0.1-0.3c-0.1-0.1-0.1-0.1-0.2-0.1c-0.1,0-0.4,0-1.1-0.1v-0.7c1,0,1.7,0.1,1.9,0.1l2-0.1V13
		c-0.1,0-0.1,0-0.2,0c-0.4,0-0.6,0.1-0.7,0.1c-0.1,0-0.2,0.1-0.2,0.2c-0.1,0.1-0.3,0.7-0.6,1.8c-0.3,1.1-0.8,2.8-1.4,5.1
		c-0.6,2.4-1,3.7-1,4.2H195l-0.9-2.5l-2.4-6c-0.2,0.5-1.1,2.6-2.7,6.2l-0.9,2.3h-1.3l-2-9.2c-0.2-1-0.4-1.6-0.5-1.8
		c-0.1-0.1-0.1-0.2-0.3-0.3c-0.1-0.1-0.4-0.1-0.9-0.1v-0.7l2.4,0.1l2.8-0.1V13c-0.5,0-0.8,0-0.8,0c-0.2,0-0.3,0.1-0.3,0.1
		c-0.1,0.1-0.1,0.2-0.1,0.3c0,0.1,0,0.1,0,0.2c0,0.1,0.1,0.4,0.2,1c0.2,1.1,0.4,1.9,0.5,2.4l0.8,3.5c0.1-0.2,0.3-0.7,0.7-1.7
		l1.1-2.5l1.4-3.3C191.9,12.7,192,12.4,192.1,12.1"/>
	<path class="st0" d="M205,19.5c0-0.9-0.1-1.6-0.4-1.9c-0.3-0.4-0.6-0.5-1.1-0.5c-0.4,0-0.8,0.2-1.1,0.6c-0.3,0.4-0.4,1-0.4,1.9
		c0.3,0.1,0.9,0.1,1.7,0.1C204.2,19.5,204.7,19.5,205,19.5 M207,23l-0.4,0.8c-0.5,0.3-1,0.5-1.5,0.6c-0.4,0.1-0.8,0.1-1.3,0.1
		c-0.6,0-1.1-0.1-1.5-0.2c-0.4-0.1-0.8-0.3-1.1-0.5c-0.3-0.2-0.6-0.5-0.8-0.8c-0.2-0.3-0.4-0.7-0.5-1.2c-0.1-0.4-0.2-0.9-0.2-1.4
		c0-0.8,0.1-1.4,0.3-2c0.1-0.4,0.3-0.7,0.5-0.9c0.1-0.1,0.4-0.3,0.9-0.6c0.5-0.3,0.8-0.5,1.1-0.6c0.4-0.2,0.9-0.3,1.4-0.3
		c0.8,0,1.4,0.2,1.9,0.5c0.5,0.3,0.8,0.7,1.1,1.2c0.2,0.5,0.3,1.1,0.3,1.8c0,0.2,0,0.3,0,0.5c-0.1,0-0.4,0.1-0.7,0.2
		c-0.4,0.1-0.7,0.1-0.8,0.1c-0.4,0-1,0.1-1.7,0.1c-0.7,0-1.1,0-1.2,0c-0.1,0-0.2,0-0.2,0h-0.6c0,0.9,0.3,1.6,0.8,2.2
		c0.5,0.5,1.2,0.8,1.9,0.8c0.3,0,0.6,0,0.9-0.1c0.3-0.1,0.6-0.2,1.1-0.4L207,23z"/>
	<path class="st0" d="M213.2,23.7v0.7c-0.7,0-1.4,0-2.2,0c-0.9,0-1.8,0-2.8,0v-0.7c0.4,0,0.8,0,0.9-0.1c0.1,0,0.1-0.1,0.2-0.1
		c0.1-0.1,0.1-0.3,0.1-0.6l0-0.8c0-0.2,0-0.4,0-0.8v-1.1c0-0.5,0-1.1,0-1.9c0-0.4,0-0.6-0.1-0.6c0,0-0.1-0.1-0.2-0.1
		c-0.1,0-0.4-0.1-1-0.1v-0.7c1.1-0.2,1.7-0.3,2.1-0.4c0.3-0.1,0.7-0.2,1.1-0.4l0.2,0.1l0,1.7c0.4-0.4,0.7-0.7,0.9-1
		c0.3-0.4,0.5-0.6,0.7-0.7c0.2-0.1,0.5-0.2,0.8-0.2c0.2,0,0.4,0,0.6,0.1l-0.1,1.2c0,0.7,0,1.1,0,1.2l-0.4,0.1
		c-0.1-0.2-0.3-0.3-0.4-0.4c-0.2-0.1-0.4-0.2-0.7-0.2c-0.3,0-0.6,0.1-0.9,0.3c-0.2,0.2-0.4,0.4-0.4,0.6c0,0.1,0,0.6,0,1.5v0.9l0,1.2
		c0,0.4,0,0.7,0,0.8c0,0.1,0.1,0.2,0.2,0.2c0.1,0.1,0.3,0.1,0.6,0.1L213.2,23.7z"/>
	<path class="st0" d="M214.8,17.8v-0.4l0.8-0.5c0.1-0.1,0.2-0.2,0.4-0.3v-1.2c0-0.4,0-0.9-0.1-1.5c0.6-0.2,0.9-0.3,1.1-0.4
		c0,0,0.4-0.2,1.1-0.5l0.2,0.2l-0.1,0.9l-0.1,1l-0.1,1.5h0.3c0.8,0,1.3,0,1.7-0.1l-0.1,1.2c-0.1,0-0.1,0-0.2,0l-0.8,0h-0.8v2.9
		c0,0.9,0,1.4,0,1.6c0,0.3,0.1,0.5,0.3,0.6c0.2,0.2,0.4,0.2,0.7,0.2c0.2,0,0.4,0,0.5,0c0.1,0,0.3,0,0.5-0.1l0.1,0.3l-0.3,0.3
		c-0.3,0.3-0.5,0.5-0.7,0.7c-0.2,0.1-0.4,0.2-0.6,0.2c-0.2,0-0.4,0-0.5,0c-0.7,0-1.2-0.2-1.6-0.5c-0.4-0.3-0.6-0.8-0.6-1.3l0-2.9
		v-2.1h-0.2C215.4,17.8,215.1,17.8,214.8,17.8"/>
	<path class="st0" d="M230.5,23.7v0.7c-0.9,0-1.4,0-1.7,0c-0.2,0-0.8,0-1.8,0l-0.1-0.1l0.1-1.8c0-0.3,0-0.7,0-1.1v-1.7
		c0-0.8-0.1-1.3-0.4-1.6c-0.3-0.3-0.6-0.5-1.1-0.5c-0.4,0-0.7,0.1-0.9,0.3c-0.3,0.2-0.5,0.4-0.6,0.7c-0.1,0.1-0.1,0.3-0.1,0.7v1.1
		c0,0.5,0,1,0,1.7c0,0.7,0,1.1,0.1,1.2c0,0.1,0,0.1,0.1,0.2c0,0,0.1,0.1,0.1,0.1c0.1,0,0.2,0.1,0.4,0.1l0.7,0v0.7
		c-1.6,0-2.4-0.1-2.6-0.1l-2.1,0.1v-0.7c0.5,0,0.8,0,0.9-0.1c0.1,0,0.2-0.1,0.2-0.1c0,0,0.1-0.1,0.1-0.2c0-0.2,0.1-0.7,0.1-1.6
		c0-0.9,0-1.7,0-2.4v-2.8c0-0.9,0-1.8-0.1-2.5c0-0.4,0-0.6-0.1-0.7c0,0-0.1-0.1-0.1-0.1c-0.1,0-0.2-0.1-0.3-0.1
		c-0.1,0-0.3,0-0.8-0.1v-0.6c0.8-0.1,1.4-0.2,1.8-0.3c0.4-0.1,0.9-0.2,1.6-0.4l0.2,0.1l-0.1,2.1c0,1,0,2,0,2.9v0.8l1.5-1.3
		c0.4-0.2,0.8-0.2,1.3-0.2c0.5,0,0.9,0.1,1.2,0.2c0.4,0.1,0.6,0.3,0.8,0.6c0.2,0.2,0.3,0.5,0.4,0.8c0.1,0.3,0.1,0.7,0.1,1.1
		c0,0.2,0,0.6,0,1.4c0,0.5,0,1,0,1.4c0,1.1,0,1.7,0.1,1.9c0,0.1,0.1,0.2,0.2,0.3C229.6,23.7,229.9,23.7,230.5,23.7"/>
	<path class="st0" d="M236.7,19.5c0-0.9-0.1-1.6-0.4-1.9c-0.3-0.4-0.6-0.5-1.1-0.5c-0.4,0-0.8,0.2-1.1,0.6c-0.3,0.4-0.4,1-0.4,1.9
		c0.3,0.1,0.9,0.1,1.7,0.1C236,19.5,236.4,19.5,236.7,19.5 M238.8,23l-0.4,0.8c-0.5,0.3-1,0.5-1.5,0.6c-0.4,0.1-0.8,0.1-1.3,0.1
		c-0.6,0-1.1-0.1-1.5-0.2c-0.4-0.1-0.8-0.3-1.1-0.5c-0.3-0.2-0.6-0.5-0.8-0.8c-0.2-0.3-0.4-0.7-0.5-1.2c-0.1-0.4-0.2-0.9-0.2-1.4
		c0-0.8,0.1-1.4,0.3-2c0.1-0.4,0.3-0.7,0.5-0.9c0.1-0.1,0.4-0.3,0.9-0.6c0.5-0.3,0.8-0.5,1.1-0.6c0.4-0.2,0.9-0.3,1.4-0.3
		c0.8,0,1.4,0.2,1.9,0.5c0.5,0.3,0.8,0.7,1.1,1.2c0.2,0.5,0.3,1.1,0.3,1.8c0,0.2,0,0.3,0,0.5c-0.1,0-0.4,0.1-0.7,0.2
		c-0.4,0.1-0.7,0.1-0.8,0.1c-0.4,0-1,0.1-1.7,0.1c-0.7,0-1.1,0-1.2,0c-0.1,0-0.2,0-0.2,0h-0.6c0,0.9,0.3,1.6,0.8,2.2
		c0.5,0.5,1.2,0.8,1.9,0.8c0.3,0,0.6,0,0.9-0.1c0.3-0.1,0.6-0.2,1.1-0.4L238.8,23z"/>
	<path class="st0" d="M242.4,11.9c0.4,0,0.7,0.1,0.9,0.4c0.3,0.3,0.4,0.6,0.4,0.9c0,0.4-0.1,0.7-0.4,0.9c-0.3,0.3-0.6,0.4-0.9,0.4
		c-0.4,0-0.7-0.1-0.9-0.4c-0.3-0.3-0.4-0.6-0.4-0.9c0-0.4,0.1-0.7,0.4-0.9C241.7,12,242,11.9,242.4,11.9 M240,24.4v-0.6
		c0.6,0,1-0.1,1.1-0.2c0.1-0.1,0.1-0.2,0.2-0.3c0.1-0.3,0.1-1.1,0.1-2.4c0-1.8,0-2.8-0.1-3.1c0-0.1-0.1-0.2-0.1-0.2
		c-0.1-0.1-0.5-0.1-1.2-0.1v-0.7c0.9-0.1,1.5-0.2,2-0.3c0.4-0.1,0.9-0.3,1.5-0.5l0.2,0.1c-0.1,0.9-0.1,1.7-0.1,2.5v2.9
		c0,1,0,1.6,0.1,1.8c0,0.1,0.1,0.2,0.1,0.2c0.2,0.1,0.5,0.1,1.1,0.1v0.7c-0.8,0-1.7,0-2.7,0C241.4,24.3,240.7,24.4,240,24.4"/>
	<path class="st0" d="M245.7,24.4v-0.7c0.4,0,0.8,0,0.9-0.1c0.1,0,0.1-0.1,0.2-0.1c0.1-0.1,0.1-0.3,0.1-0.6l0-0.8c0-0.2,0-0.4,0-0.8
		v-1.1c0-0.5,0-1.1,0-1.9c0-0.4,0-0.6-0.1-0.6c0,0-0.1-0.1-0.2-0.1c-0.1,0-0.4-0.1-1-0.1v-0.7c1-0.2,1.7-0.3,2.1-0.4
		c0.3-0.1,0.7-0.2,1.1-0.4l0.2,0.1v1.4l1.6-1.3c0.2-0.1,0.3-0.1,0.5-0.2c0.1,0,0.3,0,0.5,0c0.7,0,1.2,0.1,1.6,0.3
		c0.4,0.2,0.6,0.6,0.9,1.1l1.6-1.3c0.2-0.1,0.3-0.1,0.5-0.2c0.1,0,0.3,0,0.5,0c0.6,0,1,0.1,1.3,0.2c0.3,0.1,0.6,0.3,0.8,0.6
		c0.2,0.2,0.4,0.5,0.4,0.8c0.1,0.3,0.1,0.7,0.1,1.3c0,0.6,0,1.1,0,1.3c0,0.1,0,0.2,0,0.2v0.9c0,0.9,0,1.5,0,1.8
		c0,0.3,0.1,0.4,0.2,0.5c0.1,0.1,0.3,0.1,0.5,0.1c0.1,0,0.3,0,0.5,0v0.7c-0.8,0-1.4-0.1-2-0.1c-0.6,0-1.1,0-1.5,0.1l-0.1-0.2
		l0.1-1.6c0-0.6,0-1.2,0-1.6v-0.7c0-1,0-1.7-0.1-1.9s-0.2-0.5-0.5-0.6c-0.2-0.2-0.5-0.2-0.8-0.2c-0.4,0-0.7,0.1-0.9,0.3
		c-0.3,0.2-0.4,0.4-0.5,0.5c-0.1,0.2-0.1,0.5-0.1,0.9v2.1l0,0.9l0,0.7c0,0.2,0,0.4,0.1,0.4c0,0.1,0.1,0.1,0.1,0.2
		c0,0,0.2,0.1,0.3,0.1c0.3,0,0.6,0.1,0.7,0.1v0.7c-0.5,0-1.3,0-2.2,0c-1.1,0-1.9,0-2.4,0v-0.7c0.1,0,0.3,0,0.4-0.1
		c0.3,0,0.4,0,0.5-0.1c0.1,0,0.1-0.1,0.2-0.3c0-0.1,0.1-0.4,0.1-0.9l0-1.5v-1.2c0-0.6,0-1-0.1-1.2c-0.1-0.2-0.2-0.4-0.4-0.6
		c-0.2-0.2-0.5-0.2-0.9-0.2c-0.4,0-0.7,0.1-1,0.3c-0.3,0.2-0.4,0.4-0.5,0.6c0,0.1,0,0.6,0,1.4v1.5c0,0.8,0,1.4,0,1.8
		c0,0.2,0,0.4,0.1,0.4c0,0.1,0.1,0.1,0.2,0.1c0.1,0,0.3,0.1,0.8,0.1v0.7c-0.6,0-1.4,0-2.2,0C247.1,24.3,246.3,24.4,245.7,24.4"/>
	<path class="st0" d="M265.5,13v-0.7l2.8,0.1l1.2,0l1.2,0l0.3,0V13c-0.6,0-1,0.1-1.2,0.2c-0.1,0.1-0.1,0.2-0.2,0.3
		c-0.1,0.4-0.1,1.1-0.1,2.4v2l0,1c0,1.1,0,1.7,0,2c0.1,0.5,0.2,1,0.4,1.3s0.6,0.6,1,0.8c0.5,0.2,1,0.3,1.7,0.3
		c0.8,0,1.4-0.1,1.9-0.4c0.5-0.3,0.8-0.6,1-1.1c0.2-0.4,0.3-1.3,0.3-2.5v-1.8c0-1.5,0-2.4,0-2.8c0-0.7-0.1-1.2-0.1-1.3
		c0-0.1-0.1-0.2-0.2-0.2c-0.2-0.1-0.6-0.2-1.2-0.2v-0.7c1,0,1.7,0.1,1.9,0.1c0.1,0,0.1,0,0.2,0l1.9-0.1V13c-0.5,0-0.9,0-1,0.1
		c-0.1,0-0.1,0.1-0.2,0.3c0,0.1-0.1,0.7-0.1,1.8c0,1-0.1,1.9-0.1,2.5v2c0,0.5,0,1.1-0.1,1.6c-0.1,0.6-0.2,1-0.5,1.4
		c-0.2,0.4-0.5,0.7-1,1.1c-0.4,0.3-0.9,0.6-1.5,0.7c-0.6,0.2-1.2,0.2-2,0.2c-0.9,0-1.7-0.1-2.5-0.4c-0.6-0.2-1-0.4-1.4-0.7
		c-0.4-0.3-0.6-0.6-0.8-1c-0.2-0.4-0.3-0.7-0.3-1c0-0.2,0-0.8,0-1.7l0-1.7v-2.2c0-0.8,0-1.5,0-2.2c0-0.3-0.1-0.4-0.1-0.6
		c0-0.1-0.1-0.1-0.2-0.2L265.5,13z"/>
	<path class="st0" d="M287,20.2h-0.8c0-0.7-0.1-1.2-0.1-1.3c0-0.1-0.1-0.1-0.3-0.2c-0.4-0.1-1.1-0.1-2-0.1c-0.1,0-0.4,0-0.7,0v1
		c0,1.4,0,2.3,0,2.9c0,0.5,0.1,0.9,0.1,1c0,0.1,0.1,0.1,0.2,0.2c0.1,0,0.6,0.1,1.4,0.1v0.7l-3.4-0.1c-0.5,0-1.3,0-2.3,0.1v-0.7
		c0.7,0,1.1,0,1.2-0.1c0.1,0,0.1,0,0.1-0.1c0.1-0.1,0.1-0.2,0.1-0.4c0-0.1,0-0.5,0.1-1.2c0-0.7,0-1.2,0-1.5v-3.6
		c0-0.1,0-0.9-0.1-2.4c0-0.4,0-0.8-0.1-0.9c0-0.1,0-0.1-0.1-0.1c0,0-0.1-0.1-0.2-0.1c-0.1,0-0.5-0.1-1-0.1v-0.7l3.1,0.1l4.2-0.1
		c0.6,0,1.1,0,1.7,0.1l0.1,0.1c-0.1,0.3-0.1,0.7-0.2,1.3c0,0.5-0.1,1-0.1,1.3h-0.7c0-0.1,0-0.4,0-0.9c0-0.3,0-0.4-0.1-0.5
		c0,0,0-0.1-0.1-0.1c-0.1-0.1-0.3-0.1-0.7-0.2c-0.4-0.1-0.8-0.1-1.3-0.1c-0.1,0-0.4,0-0.8,0c-0.4,0-0.7,0-0.9,0
		c-0.1,0.6-0.1,1.6-0.1,3.1v1.2c0.7,0,1.2,0.1,1.5,0.1c0.7,0,1.2,0,1.4-0.1c0.1,0,0.1-0.1,0.2-0.2c0.1-0.1,0.1-0.5,0.1-1h0.8V20.2z"
		/>
	<path class="st0" d="M301.4,15.4h-0.7c0-0.7,0-1.1-0.1-1.4c-0.2-0.3-0.5-0.5-0.9-0.7c-0.4-0.2-0.9-0.3-1.5-0.3
		c-0.8,0-1.4,0.2-1.8,0.6c-0.4,0.4-0.6,0.9-0.6,1.4c0,0.4,0.1,0.7,0.2,0.9c0.1,0.2,0.3,0.4,0.5,0.6c0.2,0.1,0.6,0.3,1,0.4
		c0.3,0.1,0.8,0.2,1.4,0.3c0.6,0.1,1,0.2,1.2,0.2c0.5,0.1,0.8,0.3,1.1,0.4s0.5,0.4,0.7,0.6c0.2,0.2,0.3,0.5,0.4,0.8
		c0.1,0.3,0.2,0.7,0.2,1.1c0,0.7-0.2,1.4-0.5,1.9c-0.2,0.4-0.6,0.8-1,1.2c-0.4,0.3-0.8,0.6-1.3,0.8c-0.7,0.3-1.5,0.4-2.5,0.4
		c-0.7,0-1.3-0.1-1.9-0.2c-0.6-0.1-1.2-0.4-1.8-0.7c0.2-0.7,0.3-1.7,0.3-3h0.7c0,0.4,0,0.9,0.1,1.6c0.2,0.4,0.6,0.7,1.1,0.9
		c0.5,0.3,1.1,0.4,1.7,0.4c0.5,0,1-0.1,1.5-0.3c0.4-0.2,0.7-0.5,0.9-0.8c0.2-0.3,0.3-0.7,0.3-1.2c0-0.4-0.1-0.7-0.2-0.9
		c-0.1-0.3-0.3-0.5-0.6-0.6c-0.3-0.2-0.8-0.3-1.5-0.5c-1-0.2-1.7-0.4-2.1-0.5c-0.5-0.1-0.9-0.4-1.2-0.6c-0.3-0.3-0.5-0.6-0.7-1
		c-0.1-0.4-0.2-0.8-0.2-1.3c0-0.6,0.1-1.2,0.4-1.8c0.3-0.5,0.6-1,1.1-1.3c0.4-0.3,0.9-0.5,1.5-0.6c0.6-0.1,1.1-0.2,1.7-0.2
		c0.6,0,1.2,0.1,1.8,0.2c0.6,0.1,1.1,0.3,1.5,0.5l0.1,0.2c-0.1,0.4-0.1,0.7-0.2,1.1C301.4,14.4,301.4,14.8,301.4,15.4"/>
	<path class="st0" d="M310.6,23.2l-0.4,0.8c-0.5,0.2-0.9,0.4-1.2,0.5c-0.3,0.1-0.7,0.1-1.1,0.1c-0.9,0-1.7-0.2-2.3-0.6
		c-0.6-0.4-1-0.9-1.3-1.6c-0.2-0.5-0.3-1.1-0.3-1.9c0-0.6,0.1-1.1,0.2-1.5c0.1-0.4,0.3-0.7,0.5-1c0.1-0.2,0.3-0.4,0.6-0.6l1.3-0.8
		c0.4-0.3,0.8-0.5,0.9-0.5c0.3-0.1,0.6-0.2,1.1-0.2c0.4,0,0.7,0,1,0.1c0.3,0.1,0.6,0.2,0.9,0.3l0.1,0.1l-0.2,1.4
		c0,0.1,0,0.5-0.1,1.2h-0.7c0-0.5-0.1-0.9-0.1-1.1c-0.1-0.2-0.3-0.4-0.6-0.5c-0.3-0.1-0.6-0.2-0.9-0.2c-0.4,0-0.8,0.1-1,0.2
		c-0.3,0.2-0.4,0.4-0.6,0.8c-0.1,0.4-0.2,0.8-0.2,1.4c0,0.7,0.1,1.4,0.4,1.9c0.2,0.6,0.6,1,1,1.3c0.4,0.3,0.9,0.4,1.5,0.4
		c0.3,0,0.5,0,0.8-0.1c0.2-0.1,0.5-0.1,0.7-0.3L310.6,23.2z"/>
	<path class="st0" d="M316.3,23.7v0.7c-0.7,0-1.4,0-2.2,0c-0.9,0-1.8,0-2.8,0v-0.7c0.4,0,0.8,0,0.9-0.1c0.1,0,0.1-0.1,0.2-0.1
		c0.1-0.1,0.1-0.3,0.1-0.6l0-0.8c0-0.2,0-0.4,0-0.8v-1.1c0-0.5,0-1.1,0-1.9c0-0.4,0-0.6-0.1-0.6c0,0-0.1-0.1-0.2-0.1
		c-0.1,0-0.4-0.1-1-0.1v-0.7c1.1-0.2,1.7-0.3,2.1-0.4c0.3-0.1,0.7-0.2,1.1-0.4l0.2,0.1l0,1.7c0.4-0.4,0.7-0.7,0.9-1
		c0.3-0.4,0.5-0.6,0.7-0.7c0.2-0.1,0.5-0.2,0.8-0.2c0.2,0,0.4,0,0.6,0.1l-0.1,1.2c0,0.7,0,1.1,0,1.2l-0.4,0.1
		c-0.1-0.2-0.3-0.3-0.4-0.4c-0.2-0.1-0.4-0.2-0.7-0.2c-0.3,0-0.6,0.1-0.9,0.3c-0.2,0.2-0.4,0.4-0.4,0.6c0,0.1,0,0.6,0,1.5v0.9l0,1.2
		c0,0.4,0,0.7,0,0.8c0,0.1,0.1,0.2,0.2,0.2c0.1,0.1,0.3,0.1,0.6,0.1L316.3,23.7z"/>
	<path class="st0" d="M320.5,11.9c0.4,0,0.7,0.1,0.9,0.4c0.3,0.3,0.4,0.6,0.4,0.9c0,0.4-0.1,0.7-0.4,0.9c-0.3,0.3-0.6,0.4-0.9,0.4
		c-0.4,0-0.7-0.1-0.9-0.4c-0.3-0.3-0.4-0.6-0.4-0.9c0-0.4,0.1-0.7,0.4-0.9C319.8,12,320.1,11.9,320.5,11.9 M318.1,24.4v-0.6
		c0.6,0,1-0.1,1.1-0.2c0.1-0.1,0.1-0.2,0.2-0.3c0.1-0.3,0.1-1.1,0.1-2.4c0-1.8,0-2.8-0.1-3.1c0-0.1-0.1-0.2-0.1-0.2
		c-0.1-0.1-0.5-0.1-1.2-0.1v-0.7c0.9-0.1,1.5-0.2,2-0.3c0.4-0.1,0.9-0.3,1.5-0.5l0.2,0.1c-0.1,0.9-0.1,1.7-0.1,2.5v2.9
		c0,1,0,1.6,0.1,1.8c0,0.1,0.1,0.2,0.1,0.2c0.2,0.1,0.5,0.1,1.1,0.1v0.7c-0.8,0-1.7,0-2.7,0C319.5,24.3,318.8,24.4,318.1,24.4"/>
	<path class="st0" d="M327.2,22.7c0.3,0.3,0.5,0.5,0.8,0.6c0.3,0.1,0.6,0.2,0.9,0.2c0.4,0,0.8-0.1,1.1-0.3c0.3-0.2,0.6-0.6,0.8-1
		c0.2-0.5,0.3-1.1,0.3-1.7c0-0.4,0-0.8-0.1-1.2c-0.1-0.4-0.2-0.7-0.4-0.9c-0.2-0.2-0.4-0.4-0.7-0.6c-0.3-0.2-0.6-0.2-0.9-0.2
		c-0.3,0-0.6,0.1-1,0.2c-0.3,0.2-0.6,0.4-0.8,0.6V22.7z M327.2,24.3v3.2c0,0.3,0,0.4,0.1,0.5c0.1,0.1,0.1,0.1,0.3,0.1
		c0.1,0,0.4,0,1.2,0.1v0.7l-2.7-0.1l-2.3,0.1v-0.7c0.5,0,0.8,0,1-0.1c0.1,0,0.1-0.1,0.2-0.1c0-0.1,0.1-0.1,0.1-0.2
		c0-0.2,0.1-0.7,0.1-1.5l0-1.9v-4c0-0.7,0-1.4,0-1.9c0-0.5-0.1-0.9-0.1-1c0-0.1-0.1-0.1-0.2-0.1c-0.1,0-0.4-0.1-1-0.1v-0.7
		c0.9-0.1,1.5-0.2,2-0.3c0.4-0.1,0.9-0.3,1.4-0.5l0.2,0.1l0,1.5c0.1-0.1,0.2-0.2,0.4-0.4l0.9-0.7c0.1-0.1,0.1-0.1,0.3-0.2
		c0.2-0.1,0.4-0.2,0.6-0.2c0.2,0,0.4,0,0.6,0c0.6,0,1.1,0.1,1.5,0.3c0.5,0.2,1,0.6,1.3,1.2c0.3,0.5,0.5,1.2,0.5,1.9
		c0,0.5-0.1,0.9-0.2,1.4c-0.1,0.5-0.3,0.8-0.4,1.1c-0.2,0.3-0.3,0.5-0.5,0.7c-0.1,0.1-0.4,0.3-0.7,0.6c-0.3,0.2-0.6,0.5-0.9,0.7
		c-0.3,0.2-0.5,0.4-0.6,0.4c-0.2,0.1-0.4,0.2-0.5,0.2c-0.2,0.1-0.5,0.1-0.8,0.1c-0.2,0-0.5,0-0.7-0.1
		C327.7,24.5,327.4,24.4,327.2,24.3"/>
	<path class="st0" d="M337.8,22.7c0.3,0.3,0.5,0.5,0.8,0.6c0.3,0.1,0.6,0.2,0.9,0.2c0.4,0,0.8-0.1,1.1-0.3c0.3-0.2,0.6-0.6,0.8-1
		c0.2-0.5,0.3-1.1,0.3-1.7c0-0.4,0-0.8-0.1-1.2c-0.1-0.4-0.2-0.7-0.4-0.9c-0.2-0.2-0.4-0.4-0.7-0.6c-0.3-0.2-0.6-0.2-0.9-0.2
		c-0.3,0-0.6,0.1-1,0.2c-0.3,0.2-0.6,0.4-0.8,0.6V22.7z M337.8,24.3v3.2c0,0.3,0,0.4,0.1,0.5c0.1,0.1,0.1,0.1,0.3,0.1
		c0.1,0,0.4,0,1.2,0.1v0.7l-2.7-0.1l-2.3,0.1v-0.7c0.5,0,0.8,0,1-0.1c0.1,0,0.1-0.1,0.2-0.1c0-0.1,0.1-0.1,0.1-0.2
		c0-0.2,0.1-0.7,0.1-1.5l0-1.9v-4c0-0.7,0-1.4,0-1.9c0-0.5-0.1-0.9-0.1-1c0-0.1-0.1-0.1-0.2-0.1c-0.1,0-0.4-0.1-1-0.1v-0.7
		c0.9-0.1,1.5-0.2,2-0.3c0.4-0.1,0.9-0.3,1.4-0.5l0.2,0.1l0,1.5c0.1-0.1,0.2-0.2,0.4-0.4l0.9-0.7c0.1-0.1,0.1-0.1,0.3-0.2
		c0.2-0.1,0.4-0.2,0.6-0.2c0.2,0,0.4,0,0.6,0c0.6,0,1.1,0.1,1.5,0.3c0.5,0.2,1,0.6,1.3,1.2c0.3,0.5,0.5,1.2,0.5,1.9
		c0,0.5-0.1,0.9-0.2,1.4c-0.1,0.5-0.3,0.8-0.4,1.1c-0.2,0.3-0.3,0.5-0.5,0.7c-0.1,0.1-0.4,0.3-0.7,0.6c-0.3,0.2-0.6,0.5-0.9,0.7
		c-0.3,0.2-0.5,0.4-0.6,0.4c-0.2,0.1-0.4,0.2-0.5,0.2c-0.2,0.1-0.5,0.1-0.8,0.1c-0.2,0-0.5,0-0.7-0.1
		C338.3,24.5,338.1,24.4,337.8,24.3"/>
	<path class="st0" d="M345.4,21.7h0.7c0,0.6,0.1,1.1,0.1,1.2c0.3,0.3,0.5,0.6,0.9,0.7c0.3,0.2,0.7,0.2,1.1,0.2c0.5,0,1-0.1,1.2-0.4
		c0.3-0.3,0.4-0.6,0.4-0.9c0-0.2,0-0.4-0.1-0.6c-0.1-0.2-0.3-0.3-0.6-0.4c-0.2-0.1-0.7-0.2-1.3-0.3c-0.6-0.1-1.1-0.3-1.4-0.5
		c-0.3-0.2-0.6-0.4-0.8-0.7c-0.2-0.3-0.3-0.7-0.3-1.2c0-0.8,0.3-1.5,0.9-2c0.6-0.5,1.5-0.8,2.6-0.8c0.5,0,0.9,0,1.3,0.1
		c0.4,0.1,0.7,0.2,1.1,0.4l0,0.1c0,0.2-0.1,0.4-0.1,0.6c0,0.2,0,0.7-0.1,1.5l-0.7,0c0-0.1,0-0.2,0-0.3c0-0.3-0.1-0.5-0.1-0.8
		c-0.2-0.2-0.4-0.4-0.7-0.5c-0.3-0.1-0.6-0.2-0.9-0.2c-0.5,0-0.9,0.1-1.1,0.3c-0.3,0.2-0.4,0.5-0.4,0.8c0,0.3,0.1,0.5,0.2,0.7
		c0.1,0.1,0.3,0.3,0.5,0.3c0.2,0.1,0.7,0.2,1.3,0.3c0.6,0.1,1.1,0.2,1.3,0.3c0.3,0.1,0.6,0.3,0.8,0.5c0.2,0.2,0.3,0.4,0.4,0.7
		c0.1,0.3,0.2,0.6,0.2,0.9c0,0.9-0.3,1.6-1,2.2c-0.7,0.6-1.6,0.9-2.8,0.9c-0.4,0-0.8,0-1.2-0.1c-0.4-0.1-0.8-0.2-1.4-0.4l-0.1-0.1
		c0-0.4,0.1-0.8,0.1-0.9L345.4,21.7z"/>
	<path class="st0" d="M362.8,12.3V13c-0.6,0-0.9,0-1,0.1c-0.1,0-0.2,0.1-0.2,0.1c0,0-0.1,0.1-0.1,0.1c0,0.1-0.1,0.3-0.1,0.6
		c0,0.1,0,0.4,0,0.8c0,1.4,0,2.2,0,2.3v3.5l0,1.6c0,0.6,0,1,0.1,1.2c0,0.1,0.1,0.1,0.1,0.2c0.1,0,0.1,0.1,0.3,0.1c0.1,0,0.5,0,1,0.1
		v0.8c-0.9,0-1.9-0.1-3-0.1c-0.9,0-1.8,0-2.5,0.1v-0.8c0.6,0,0.9,0,1-0.1c0.1,0,0.2-0.1,0.2-0.1c0,0,0.1-0.1,0.1-0.1
		c0-0.1,0-0.3,0.1-0.8c0-0.7,0.1-1.3,0.1-1.9V17c0-1.1,0-1.9,0-2.2c0-0.7-0.1-1.2-0.1-1.4c0-0.1,0-0.1-0.1-0.2c0,0-0.1-0.1-0.2-0.1
		c-0.1,0-0.5,0-1.1-0.1v-0.8c0.7,0,1.6,0.1,2.5,0.1C360.8,12.3,361.8,12.3,362.8,12.3"/>
	<path class="st0" d="M373.6,23.7v0.6c-0.8,0-1.4-0.1-1.9-0.1c-0.6,0-1.1,0-1.5,0.1l-0.2-0.2c0-0.1,0.1-0.6,0.1-1.5l0-1.4v-0.7
		c0-1,0-1.7-0.1-2c-0.1-0.3-0.2-0.6-0.5-0.8c-0.2-0.2-0.6-0.3-1-0.3c-0.4,0-0.7,0.1-1,0.3c-0.3,0.2-0.4,0.4-0.5,0.6
		c0,0.1-0.1,0.6-0.1,1.4v1.5c0,0.4,0,0.9,0,1.5c0,0.3,0,0.4,0.1,0.5c0,0.1,0.1,0.1,0.1,0.1c0.1,0,0.2,0.1,0.4,0.1
		c0.1,0,0.3,0,0.7,0.1v0.7c-0.6,0-1.4,0-2.3,0c-1.1,0-1.9,0-2.5,0v-0.7c0.4,0,0.8,0,0.9-0.1c0.1,0,0.1-0.1,0.2-0.1
		c0.1-0.1,0.1-0.3,0.1-0.6l0-0.8c0-0.2,0-0.4,0-0.8v-1.1c0-0.5,0-1.1,0-1.9c0-0.4,0-0.6-0.1-0.6c0,0-0.1-0.1-0.2-0.1
		c-0.1,0-0.4-0.1-1-0.1v-0.7c1-0.2,1.7-0.3,2.1-0.4c0.3-0.1,0.7-0.2,1.1-0.4l0.2,0.1v1.4l1.6-1.3c0.2-0.1,0.3-0.1,0.5-0.2
		c0.1,0,0.3,0,0.5,0c0.6,0,1.1,0.1,1.4,0.2c0.3,0.1,0.6,0.3,0.8,0.6c0.2,0.3,0.4,0.5,0.4,0.8c0.1,0.3,0.1,0.7,0.1,1.3
		c0,0.7,0,1.1,0,1.3c0,0.1,0,0.2,0,0.3l0,0.9c0,1,0,1.6,0,1.8c0,0.2,0.1,0.4,0.2,0.4c0.1,0.1,0.3,0.1,0.5,0.1
		C373.2,23.7,373.4,23.7,373.6,23.7"/>
	<path class="st0" d="M374.7,21.7h0.7c0,0.6,0.1,1.1,0.1,1.2c0.3,0.3,0.5,0.6,0.9,0.7c0.3,0.2,0.7,0.2,1.1,0.2c0.5,0,1-0.1,1.2-0.4
		c0.3-0.3,0.4-0.6,0.4-0.9c0-0.2,0-0.4-0.1-0.6c-0.1-0.2-0.3-0.3-0.6-0.4c-0.2-0.1-0.7-0.2-1.3-0.3c-0.6-0.1-1.1-0.3-1.4-0.5
		c-0.3-0.2-0.6-0.4-0.8-0.7c-0.2-0.3-0.3-0.7-0.3-1.2c0-0.8,0.3-1.5,0.9-2c0.6-0.5,1.5-0.8,2.6-0.8c0.5,0,0.9,0,1.3,0.1
		c0.4,0.1,0.7,0.2,1.1,0.4l0,0.1c0,0.2-0.1,0.4-0.1,0.6c0,0.2,0,0.7-0.1,1.5l-0.7,0c0-0.1,0-0.2,0-0.3c0-0.3-0.1-0.5-0.1-0.8
		c-0.2-0.2-0.4-0.4-0.7-0.5c-0.3-0.1-0.6-0.2-0.9-0.2c-0.5,0-0.9,0.1-1.1,0.3c-0.3,0.2-0.4,0.5-0.4,0.8c0,0.3,0.1,0.5,0.2,0.7
		c0.1,0.1,0.3,0.3,0.5,0.3c0.2,0.1,0.7,0.2,1.3,0.3c0.6,0.1,1.1,0.2,1.3,0.3c0.3,0.1,0.6,0.3,0.8,0.5c0.2,0.2,0.3,0.4,0.4,0.7
		c0.1,0.3,0.2,0.6,0.2,0.9c0,0.9-0.3,1.6-1,2.2c-0.7,0.6-1.6,0.9-2.8,0.9c-0.4,0-0.8,0-1.2-0.1c-0.4-0.1-0.8-0.2-1.4-0.4l-0.1-0.1
		c0-0.4,0.1-0.8,0.1-0.9L374.7,21.7z"/>
	<path class="st0" d="M381.9,17.8v-0.4l0.8-0.5c0.1-0.1,0.2-0.2,0.4-0.3v-1.2c0-0.4,0-0.9-0.1-1.5c0.6-0.2,0.9-0.3,1.1-0.4
		c0,0,0.4-0.2,1.1-0.5l0.2,0.2l-0.1,0.9l-0.1,1l-0.1,1.5h0.3c0.8,0,1.3,0,1.7-0.1l-0.1,1.2c-0.1,0-0.1,0-0.2,0l-0.8,0h-0.8v2.9
		c0,0.9,0,1.4,0,1.6c0,0.3,0.1,0.5,0.3,0.6c0.2,0.2,0.4,0.2,0.7,0.2c0.2,0,0.4,0,0.5,0c0.1,0,0.3,0,0.5-0.1l0.1,0.3l-0.3,0.3
		c-0.3,0.3-0.5,0.5-0.7,0.7c-0.2,0.1-0.4,0.2-0.6,0.2c-0.2,0-0.4,0-0.5,0c-0.7,0-1.2-0.2-1.6-0.5c-0.4-0.3-0.6-0.8-0.6-1.3l0-2.9
		v-2.1h-0.2C382.5,17.8,382.2,17.8,381.9,17.8"/>
	<path class="st0" d="M390.2,11.9c0.4,0,0.7,0.1,0.9,0.4c0.3,0.3,0.4,0.6,0.4,0.9c0,0.4-0.1,0.7-0.4,0.9c-0.3,0.3-0.6,0.4-0.9,0.4
		c-0.4,0-0.7-0.1-0.9-0.4c-0.3-0.3-0.4-0.6-0.4-0.9c0-0.4,0.1-0.7,0.4-0.9C389.5,12,389.8,11.9,390.2,11.9 M387.8,24.4v-0.6
		c0.6,0,1-0.1,1.1-0.2c0.1-0.1,0.1-0.2,0.2-0.3c0.1-0.3,0.1-1.1,0.1-2.4c0-1.8,0-2.8-0.1-3.1c0-0.1-0.1-0.2-0.1-0.2
		c-0.1-0.1-0.5-0.1-1.2-0.1v-0.7c0.9-0.1,1.5-0.2,2-0.3c0.4-0.1,0.9-0.3,1.5-0.5l0.2,0.1c-0.1,0.9-0.1,1.7-0.1,2.5v2.9
		c0,1,0,1.6,0.1,1.8c0,0.1,0.1,0.2,0.1,0.2c0.2,0.1,0.5,0.1,1.1,0.1v0.7c-0.8,0-1.7,0-2.7,0C389.2,24.3,388.4,24.4,387.8,24.4"/>
	<path class="st0" d="M393.3,17.8v-0.4l0.8-0.5c0.1-0.1,0.2-0.2,0.4-0.3v-1.2c0-0.4,0-0.9-0.1-1.5c0.6-0.2,0.9-0.3,1.1-0.4
		c0,0,0.4-0.2,1.1-0.5l0.2,0.2l-0.1,0.9l-0.1,1l-0.1,1.5h0.3c0.8,0,1.3,0,1.7-0.1l-0.1,1.2c-0.1,0-0.1,0-0.2,0l-0.8,0h-0.8v2.9
		c0,0.9,0,1.4,0,1.6c0,0.3,0.1,0.5,0.3,0.6c0.2,0.2,0.4,0.2,0.7,0.2c0.2,0,0.4,0,0.5,0c0.1,0,0.3,0,0.5-0.1l0.1,0.3l-0.3,0.3
		c-0.3,0.3-0.5,0.5-0.7,0.7c-0.2,0.1-0.4,0.2-0.6,0.2c-0.2,0-0.4,0-0.5,0c-0.7,0-1.2-0.2-1.6-0.5c-0.4-0.3-0.6-0.8-0.6-1.3l0-2.9
		v-2.1h-0.2C393.9,17.8,393.6,17.8,393.3,17.8"/>
	<path class="st0" d="M399.1,17.4v-0.7c0.5,0,1-0.1,1.5-0.2c0.5-0.1,1.1-0.3,1.9-0.6l0.1,0.1c-0.1,1.1-0.1,2.2-0.1,3.2v1
		c0,0.8,0,1.4,0.1,1.7c0.1,0.4,0.2,0.6,0.4,0.8c0.2,0.2,0.5,0.3,0.9,0.3c0.4,0,0.8-0.1,1-0.3c0.3-0.2,0.5-0.4,0.6-0.7
		c0.1-0.1,0.1-0.5,0.1-0.9v-1.5l0-1.2c0-0.4,0-0.6-0.1-0.7c0-0.1-0.1-0.1-0.2-0.1c-0.1,0-0.4-0.1-1.1-0.1v-0.7
		c0.9-0.1,1.5-0.2,1.8-0.3c0.3-0.1,0.9-0.2,1.6-0.5l0.2,0.1l-0.1,1.6c0,1.1-0.1,1.8-0.1,1.9v1.8c0,1.1,0,1.7,0.1,2
		c0,0.1,0.1,0.2,0.1,0.2c0.1,0.1,0.5,0.1,1.1,0.1v0.7l-1.8,0l-1.6,0l-0.1-0.1l0.1-0.7c0-0.1,0-0.3,0-0.7c-0.2,0.2-0.4,0.3-0.6,0.5
		l-1,0.9c-0.4,0.1-0.8,0.2-1.2,0.2c-0.8,0-1.4-0.2-1.8-0.6c-0.4-0.4-0.7-1-0.7-1.7c0-0.1,0-0.4,0-1c0-0.3,0-0.7,0-1.1l0-1.8
		c0-0.3,0-0.5-0.1-0.6c0-0.1-0.1-0.1-0.2-0.2C400,17.5,399.6,17.5,399.1,17.4"/>
	<path class="st0" d="M409.7,17.8v-0.4l0.8-0.5c0.1-0.1,0.2-0.2,0.4-0.3v-1.2c0-0.4,0-0.9-0.1-1.5c0.6-0.2,0.9-0.3,1.1-0.4
		c0,0,0.4-0.2,1.1-0.5l0.2,0.2l-0.1,0.9l-0.1,1l-0.1,1.5h0.3c0.8,0,1.3,0,1.7-0.1l-0.1,1.2c-0.1,0-0.1,0-0.2,0l-0.8,0h-0.8v2.9
		c0,0.9,0,1.4,0,1.6c0,0.3,0.1,0.5,0.3,0.6c0.2,0.2,0.4,0.2,0.7,0.2c0.2,0,0.4,0,0.5,0c0.1,0,0.3,0,0.5-0.1l0.1,0.3l-0.3,0.3
		c-0.3,0.3-0.5,0.5-0.7,0.7c-0.2,0.1-0.4,0.2-0.6,0.2c-0.2,0-0.4,0-0.5,0c-0.7,0-1.2-0.2-1.6-0.5c-0.4-0.3-0.6-0.8-0.6-1.3l0-2.9
		v-2.1h-0.2C410.3,17.8,410,17.8,409.7,17.8"/>
	<path class="st0" d="M421,19.5c0-0.9-0.1-1.6-0.4-1.9c-0.3-0.4-0.6-0.5-1.1-0.5c-0.4,0-0.8,0.2-1.1,0.6c-0.3,0.4-0.4,1-0.4,1.9
		c0.3,0.1,0.9,0.1,1.7,0.1C420.2,19.5,420.6,19.5,421,19.5 M423,23l-0.4,0.8c-0.5,0.3-1,0.5-1.5,0.6c-0.4,0.1-0.8,0.1-1.3,0.1
		c-0.6,0-1.1-0.1-1.5-0.2c-0.4-0.1-0.8-0.3-1.1-0.5c-0.3-0.2-0.6-0.5-0.8-0.8c-0.2-0.3-0.4-0.7-0.5-1.2c-0.1-0.4-0.2-0.9-0.2-1.4
		c0-0.8,0.1-1.4,0.3-2c0.1-0.4,0.3-0.7,0.5-0.9c0.1-0.1,0.4-0.3,0.9-0.6c0.5-0.3,0.8-0.5,1.1-0.6c0.4-0.2,0.9-0.3,1.4-0.3
		c0.8,0,1.4,0.2,1.9,0.5c0.5,0.3,0.8,0.7,1.1,1.2c0.2,0.5,0.3,1.1,0.3,1.8c0,0.2,0,0.3,0,0.5c-0.1,0-0.4,0.1-0.7,0.2
		c-0.4,0.1-0.7,0.1-0.8,0.1c-0.4,0-1,0.1-1.7,0.1c-0.7,0-1.1,0-1.2,0c-0.1,0-0.2,0-0.3,0H418c0,0.9,0.3,1.6,0.8,2.2
		c0.5,0.5,1.2,0.8,1.9,0.8c0.3,0,0.6,0,0.9-0.1c0.3-0.1,0.6-0.2,1.1-0.4L423,23z"/>
	<path class="st0" d="M82.3,44.6V44c0.7,0,1.1-0.1,1.2-0.2c0.1-0.1,0.2-0.2,0.2-0.3c0-0.3,0.1-1.2,0.1-2.8V38l-0.2,0L82.3,38v-0.4
		c0.8-0.4,1.2-0.6,1.2-0.6c0.1-0.1,0.1-0.1,0.1-0.2c0-0.3,0-0.6,0-1c0-0.4,0.1-0.7,0.1-0.8c0.1-0.2,0.1-0.3,0.3-0.5
		c0.2-0.3,0.6-0.7,1.3-1.2l1-0.9c0.2-0.1,0.4-0.3,0.6-0.3c0.2-0.1,0.5-0.1,0.7-0.1c0.3,0,0.6,0.1,0.9,0.2c-0.1,0.6-0.1,1.2-0.1,1.7
		l-0.3,0.2c-0.2-0.2-0.3-0.3-0.5-0.3c-0.1-0.1-0.3-0.1-0.6-0.1c-0.3,0-0.6,0.1-0.8,0.2C86.1,33.7,86,33.8,86,34
		c-0.1,0.2-0.1,0.8-0.1,1.7v1.2l1,0c0.5,0,0.9,0,1.3-0.1l0.1,0.1c0,0.1-0.1,0.2-0.1,0.3L88.1,38l-0.9,0c-0.3,0-0.4,0-0.4,0
		c-0.1,0-0.4,0-0.9,0v2.8c0,0.6,0,1.2,0,1.8c0,0.6,0,0.9,0.1,1c0,0.1,0.1,0.1,0.1,0.2c0.1,0.1,0.2,0.1,0.3,0.1c0,0,0.4,0,1.2,0.1
		v0.7l-2.9,0C84.3,44.6,83.5,44.6,82.3,44.6"/>
	<path class="st0" d="M91.5,40.1c0,1.5,0.2,2.6,0.7,3.3c0.3,0.4,0.7,0.6,1.3,0.6c0.5,0,0.8-0.2,1.1-0.5c0.4-0.4,0.6-1.3,0.6-2.5
		c0-0.9-0.1-1.6-0.2-2.3c-0.1-0.6-0.4-1.1-0.6-1.3c-0.3-0.2-0.6-0.4-1-0.4c-0.3,0-0.6,0.1-0.9,0.3c-0.3,0.2-0.5,0.5-0.6,0.9
		C91.6,38.7,91.5,39.3,91.5,40.1 M89.1,40.5c0-1,0.2-1.8,0.5-2.4c0.3-0.6,0.8-1.1,1.5-1.5c0.7-0.3,1.4-0.5,2.3-0.5
		c1.3,0,2.3,0.3,3,1c0.7,0.7,1,1.7,1,3.1c0,0.8-0.1,1.5-0.3,2c-0.2,0.6-0.5,1-0.8,1.4c-0.3,0.3-0.7,0.6-1.1,0.8
		c-0.6,0.3-1.4,0.4-2.2,0.4c-1.3,0-2.3-0.4-3-1.1C89.5,43.1,89.1,42,89.1,40.5"/>
	<path class="st0" d="M103.5,43.9v0.7c-0.7,0-1.4,0-2.2,0c-0.9,0-1.8,0-2.8,0v-0.7c0.4,0,0.8,0,0.9-0.1c0.1,0,0.1-0.1,0.2-0.1
		c0.1-0.1,0.1-0.3,0.1-0.6l0-0.8c0-0.2,0-0.4,0-0.8v-1.1c0-0.5,0-1.1,0-1.9c0-0.4,0-0.6-0.1-0.6c0,0-0.1-0.1-0.2-0.1
		c-0.1,0-0.4-0.1-1-0.1V37c1.1-0.2,1.7-0.3,2.1-0.4c0.3-0.1,0.7-0.2,1.1-0.4l0.2,0.1l0,1.7c0.4-0.4,0.7-0.7,0.9-1
		c0.3-0.4,0.5-0.6,0.7-0.7c0.2-0.1,0.5-0.2,0.8-0.2c0.2,0,0.4,0,0.6,0.1l-0.1,1.2c0,0.7,0,1.1,0,1.2l-0.4,0.1
		c-0.1-0.2-0.3-0.3-0.4-0.4c-0.2-0.1-0.4-0.2-0.7-0.2c-0.3,0-0.6,0.1-0.9,0.3c-0.2,0.2-0.4,0.4-0.4,0.6c0,0.1,0,0.6,0,1.5v0.9l0,1.2
		c0,0.4,0,0.7,0,0.8c0,0.1,0.1,0.2,0.2,0.2c0.1,0.1,0.3,0.1,0.6,0.1L103.5,43.9z"/>
	<path class="st0" d="M113.7,43.6c0.2,0,0.5,0.1,1.1,0.1c0.7,0,1.3-0.2,1.7-0.7c0.4-0.5,0.7-1.1,0.7-2c0-0.6-0.1-1.1-0.3-1.5
		c-0.2-0.4-0.5-0.7-0.9-0.8c-0.4-0.2-0.9-0.2-1.6-0.2c-0.2,0-0.5,0-0.7,0v3.9l0,1C113.7,43.4,113.7,43.5,113.7,43.6 M113.7,37.5
		l0.5,0c0.4,0,0.8,0,1.1-0.1c0.3-0.1,0.6-0.2,0.8-0.3s0.4-0.4,0.5-0.7c0.1-0.3,0.2-0.7,0.2-1.1c0-0.4-0.1-0.8-0.2-1.1
		c-0.2-0.3-0.4-0.5-0.6-0.6c-0.3-0.1-0.6-0.2-1.2-0.2c-0.4,0-0.7,0-1,0.1c0,0.4-0.1,0.9-0.1,1.4l0,1.3V37.5z M110.4,44.6v-0.4
		c0.3-0.2,0.6-0.4,0.8-0.5c0-0.3,0.1-0.6,0.1-1c0-0.8,0-2.4,0-4.6c0-0.6,0-1.5,0-2.8c0-1,0-1.5-0.1-1.7c0-0.1-0.1-0.1-0.1-0.2
		c-0.1-0.1-0.6-0.1-1.3-0.2v-0.7c0.1,0,0.3,0,0.4,0l1.2,0c0.4,0,0.9,0,1.5,0c0.6,0,1,0,1.4,0c0.8,0,1.4-0.1,1.6-0.1
		c1,0,1.7,0.1,2.2,0.3c0.5,0.2,0.9,0.5,1.1,0.9c0.2,0.4,0.4,0.8,0.4,1.3c0,0.5-0.1,1-0.4,1.4c-0.3,0.4-0.6,0.8-1,1
		c-0.3,0.1-0.8,0.3-1.7,0.6c1,0.1,1.8,0.3,2.2,0.5s0.7,0.5,1,1c0.2,0.4,0.4,0.9,0.4,1.5c0,0.6-0.1,1.1-0.4,1.6
		c-0.3,0.5-0.6,0.9-1,1.2c-0.4,0.3-0.9,0.6-1.4,0.8c-0.5,0.2-1.2,0.3-1.9,0.3l-2.9-0.1C111.7,44.5,111.1,44.6,110.4,44.6"/>
	<path class="st0" d="M123.6,32.1c0.4,0,0.7,0.1,0.9,0.4c0.3,0.3,0.4,0.6,0.4,0.9c0,0.4-0.1,0.7-0.4,0.9c-0.3,0.3-0.6,0.4-0.9,0.4
		c-0.4,0-0.7-0.1-0.9-0.4c-0.3-0.3-0.4-0.6-0.4-0.9c0-0.4,0.1-0.7,0.4-0.9C122.9,32.2,123.2,32.1,123.6,32.1 M121.2,44.6V44
		c0.6,0,1-0.1,1.1-0.2c0.1-0.1,0.1-0.2,0.2-0.3c0.1-0.3,0.1-1.1,0.1-2.4c0-1.8,0-2.8-0.1-3.1c0-0.1-0.1-0.2-0.1-0.2
		c-0.1-0.1-0.5-0.1-1.2-0.1V37c0.9-0.1,1.5-0.2,2-0.3c0.4-0.1,0.9-0.3,1.5-0.5l0.2,0.1c-0.1,0.9-0.1,1.7-0.1,2.5v2.9
		c0,1,0,1.6,0.1,1.8c0,0.1,0.1,0.2,0.1,0.2c0.2,0.1,0.5,0.1,1.1,0.1v0.7c-0.8,0-1.7,0-2.7,0C122.6,44.6,121.9,44.6,121.2,44.6"/>
	<path class="st0" d="M129.5,40.1c0,1.5,0.2,2.6,0.7,3.3c0.3,0.4,0.7,0.6,1.3,0.6c0.5,0,0.8-0.2,1.1-0.5c0.4-0.4,0.6-1.3,0.6-2.5
		c0-0.9-0.1-1.6-0.2-2.3c-0.1-0.6-0.4-1.1-0.6-1.3c-0.3-0.2-0.6-0.4-1-0.4c-0.3,0-0.6,0.1-0.9,0.3c-0.3,0.2-0.5,0.5-0.6,0.9
		C129.6,38.7,129.5,39.3,129.5,40.1 M127.1,40.5c0-1,0.2-1.8,0.5-2.4c0.3-0.6,0.8-1.1,1.5-1.5c0.7-0.3,1.4-0.5,2.3-0.5
		c1.3,0,2.3,0.3,3,1c0.7,0.7,1,1.7,1,3.1c0,0.8-0.1,1.5-0.3,2c-0.2,0.6-0.5,1-0.8,1.4c-0.3,0.3-0.7,0.6-1.1,0.8
		c-0.6,0.3-1.4,0.4-2.2,0.4c-1.3,0-2.3-0.4-3-1.1C127.4,43.1,127.1,42,127.1,40.5"/>
	<path class="st0" d="M136.6,44.6v-0.7c0.4,0,0.8,0,0.9-0.1c0.1,0,0.1-0.1,0.2-0.1c0.1-0.1,0.1-0.3,0.1-0.6l0-0.8c0-0.2,0-0.4,0-0.8
		v-1.1c0-0.5,0-1.1,0-1.9c0-0.4,0-0.6-0.1-0.6c0,0-0.1-0.1-0.2-0.1c-0.1,0-0.4-0.1-1-0.1V37c1-0.2,1.7-0.3,2.1-0.4
		c0.3-0.1,0.7-0.2,1.1-0.4l0.2,0.1v1.4l1.6-1.3c0.2-0.1,0.3-0.1,0.5-0.2c0.1,0,0.3,0,0.5,0c0.7,0,1.2,0.1,1.6,0.3
		c0.4,0.2,0.6,0.6,0.9,1.1l1.6-1.3c0.2-0.1,0.3-0.1,0.5-0.2c0.1,0,0.3,0,0.5,0c0.6,0,1,0.1,1.3,0.2c0.3,0.1,0.6,0.3,0.8,0.6
		c0.2,0.2,0.4,0.5,0.4,0.8c0.1,0.3,0.1,0.7,0.1,1.3c0,0.6,0,1.1,0,1.3c0,0.1,0,0.2,0,0.3v0.9c0,0.9,0,1.5,0,1.8
		c0,0.3,0.1,0.4,0.2,0.5c0.1,0.1,0.3,0.1,0.5,0.1c0.1,0,0.3,0,0.5,0v0.7c-0.8,0-1.4-0.1-2-0.1c-0.6,0-1.1,0-1.5,0.1l-0.1-0.2
		l0.1-1.6c0-0.6,0-1.2,0-1.6v-0.7c0-1,0-1.7-0.1-1.9c-0.1-0.3-0.2-0.5-0.5-0.6c-0.2-0.2-0.5-0.2-0.8-0.2c-0.4,0-0.7,0.1-0.9,0.3
		c-0.3,0.2-0.4,0.4-0.5,0.5c-0.1,0.2-0.1,0.5-0.1,0.9v2.1l0,0.9l0,0.7c0,0.2,0,0.4,0.1,0.4c0,0.1,0.1,0.1,0.1,0.2
		c0,0,0.2,0.1,0.3,0.1c0.3,0,0.6,0.1,0.7,0.1v0.7c-0.5,0-1.3,0-2.2,0c-1.1,0-1.9,0-2.4,0v-0.7c0.1,0,0.3,0,0.4-0.1
		c0.3,0,0.4,0,0.5-0.1c0.1,0,0.1-0.1,0.2-0.3c0-0.1,0.1-0.4,0.1-0.9l0-1.5v-1.2c0-0.6,0-1-0.1-1.2c-0.1-0.2-0.2-0.4-0.4-0.6
		c-0.2-0.2-0.5-0.2-0.9-0.2c-0.4,0-0.7,0.1-1,0.3c-0.3,0.2-0.4,0.4-0.5,0.6c0,0.1,0,0.6,0,1.4v1.5c0,0.8,0,1.4,0,1.8
		c0,0.2,0,0.4,0.1,0.4c0,0.1,0.1,0.1,0.2,0.1c0.1,0,0.3,0.1,0.8,0.1v0.7c-0.6,0-1.4,0-2.2,0C137.9,44.6,137.1,44.6,136.6,44.6"/>
	<path class="st0" d="M157.6,39.7c0-0.9-0.1-1.6-0.4-1.9c-0.3-0.4-0.6-0.5-1.1-0.5c-0.4,0-0.8,0.2-1.1,0.6c-0.3,0.4-0.4,1-0.4,1.9
		c0.3,0.1,0.9,0.1,1.7,0.1C156.8,39.8,157.2,39.7,157.6,39.7 M159.6,43.3l-0.4,0.8c-0.5,0.3-1,0.5-1.5,0.6c-0.4,0.1-0.8,0.1-1.3,0.1
		c-0.6,0-1.1-0.1-1.5-0.2c-0.4-0.1-0.8-0.3-1.1-0.5c-0.3-0.2-0.6-0.5-0.8-0.8c-0.2-0.3-0.4-0.7-0.5-1.2c-0.1-0.4-0.2-0.9-0.2-1.4
		c0-0.8,0.1-1.4,0.3-2c0.1-0.4,0.3-0.7,0.5-0.9c0.1-0.1,0.4-0.3,0.9-0.6c0.5-0.3,0.8-0.5,1.1-0.6c0.4-0.2,0.9-0.3,1.4-0.3
		c0.8,0,1.4,0.2,1.9,0.5c0.5,0.3,0.8,0.7,1.1,1.2c0.2,0.5,0.3,1.1,0.3,1.8c0,0.2,0,0.3,0,0.5c-0.1,0-0.4,0.1-0.7,0.2
		c-0.4,0.1-0.7,0.1-0.8,0.1c-0.4,0-1,0.1-1.7,0.1c-0.7,0-1.1,0-1.2,0c-0.1,0-0.2,0-0.2,0h-0.6c0,0.9,0.3,1.6,0.8,2.2
		c0.5,0.5,1.2,0.8,1.9,0.8c0.3,0,0.6,0,0.9-0.1c0.3-0.1,0.6-0.2,1.1-0.4L159.6,43.3z"/>
	<path class="st0" d="M167.2,38.5c-0.3-0.4-0.6-0.6-0.8-0.7c-0.4-0.2-0.8-0.3-1.2-0.3c-0.4,0-0.7,0.1-1,0.3s-0.4,0.5-0.6,0.9
		c-0.1,0.4-0.2,0.9-0.2,1.5c0,1,0.2,1.9,0.7,2.4c0.3,0.4,0.8,0.6,1.3,0.6c0.4,0,0.8-0.1,1.1-0.4c0.3-0.2,0.5-0.5,0.6-0.7
		c0.1-0.2,0.1-0.9,0.1-2.1L167.2,38.5z M170.6,44v0.6l-1.8,0l-1.6,0l-0.1-0.1l0-0.7l0-0.7c-0.4,0.3-0.8,0.7-1.3,1.1
		c-0.2,0.2-0.4,0.3-0.5,0.4c-0.2,0.1-0.5,0.1-0.9,0.1c-1,0-1.7-0.3-2.4-1.1c-0.6-0.7-0.9-1.7-0.9-2.9c0-0.7,0.1-1.3,0.3-1.8
		c0.1-0.4,0.3-0.7,0.5-0.9c0.1-0.2,0.5-0.5,1.2-0.9c0.6-0.4,1.1-0.7,1.4-0.8c0.3-0.1,0.6-0.2,1.1-0.2c0.3,0,0.5,0,0.7,0.1
		c0.2,0,0.5,0.1,0.9,0.3c0-0.3,0-0.7,0-1.1c0-0.4,0-1,0-1.6c0-0.3,0-0.5-0.1-0.6c0-0.1-0.1-0.1-0.2-0.1c-0.1,0-0.4,0-1.1-0.1v-0.6
		c1.2-0.1,2.4-0.4,3.4-0.8l0.2,0.1c-0.1,1.5-0.1,2.5-0.1,2.7c0,1.5,0,3.6,0,6.3v0.8c0,0.4,0,0.8,0,1.3c0,0.3,0,0.5,0.1,0.6
		c0,0.1,0.1,0.1,0.2,0.2C169.8,43.9,170.1,43.9,170.6,44"/>
	<path class="st0" d="M173.9,32.1c0.4,0,0.7,0.1,0.9,0.4c0.3,0.3,0.4,0.6,0.4,0.9c0,0.4-0.1,0.7-0.4,0.9c-0.3,0.3-0.6,0.4-0.9,0.4
		c-0.4,0-0.7-0.1-0.9-0.4c-0.3-0.3-0.4-0.6-0.4-0.9c0-0.4,0.1-0.7,0.4-0.9C173.2,32.2,173.5,32.1,173.9,32.1 M171.5,44.6V44
		c0.6,0,1-0.1,1.1-0.2c0.1-0.1,0.1-0.2,0.2-0.3c0.1-0.3,0.1-1.1,0.1-2.4c0-1.8,0-2.8-0.1-3.1c0-0.1-0.1-0.2-0.1-0.2
		c-0.1-0.1-0.5-0.1-1.2-0.1V37c0.9-0.1,1.5-0.2,2-0.3c0.4-0.1,0.9-0.3,1.5-0.5l0.2,0.1c-0.1,0.9-0.1,1.7-0.1,2.5v2.9
		c0,1,0,1.6,0.1,1.8c0,0.1,0.1,0.2,0.1,0.2c0.2,0.1,0.5,0.1,1.1,0.1v0.7c-0.8,0-1.7,0-2.7,0C172.9,44.6,172.1,44.6,171.5,44.6"/>
	<path class="st0" d="M184.1,43.5l-0.4,0.8c-0.5,0.2-0.9,0.4-1.2,0.5c-0.3,0.1-0.7,0.1-1.1,0.1c-0.9,0-1.7-0.2-2.3-0.6
		c-0.6-0.4-1-0.9-1.3-1.6c-0.2-0.5-0.3-1.1-0.3-1.9c0-0.6,0.1-1.1,0.2-1.5c0.1-0.4,0.3-0.7,0.5-1c0.1-0.2,0.3-0.4,0.6-0.6l1.3-0.8
		c0.4-0.3,0.8-0.5,0.9-0.5c0.3-0.1,0.6-0.2,1.1-0.2c0.4,0,0.7,0,1,0.1c0.3,0.1,0.6,0.2,0.9,0.3l0.1,0.1l-0.2,1.4
		c0,0.1,0,0.5-0.1,1.2H183c0-0.5-0.1-0.9-0.1-1.1c-0.1-0.2-0.3-0.4-0.6-0.5c-0.3-0.1-0.6-0.2-0.9-0.2c-0.4,0-0.8,0.1-1,0.2
		c-0.3,0.2-0.4,0.4-0.6,0.8c-0.1,0.4-0.2,0.8-0.2,1.4c0,0.7,0.1,1.4,0.4,1.9c0.2,0.6,0.6,1,1,1.3c0.4,0.3,0.9,0.4,1.5,0.4
		c0.3,0,0.5,0,0.8-0.1c0.2-0.1,0.5-0.1,0.7-0.3L184.1,43.5z"/>
	<path class="st0" d="M189.6,40.4c-0.5,0.1-0.9,0.2-1.3,0.4c-0.4,0.1-0.7,0.3-0.8,0.5c-0.2,0.2-0.2,0.5-0.2,0.8
		c0,0.4,0.1,0.7,0.3,0.9c0.2,0.2,0.4,0.3,0.7,0.3c0.3,0,0.5-0.1,0.8-0.2c0.3-0.2,0.5-0.3,0.6-0.6V40.4z M192.7,44v0.6
		c-0.7,0-1.3,0-1.8,0c-0.5,0-1,0-1.4,0l-0.1-0.1l0.1-1.1c-0.2,0.1-0.8,0.6-1.8,1.4c-0.3,0.1-0.5,0.1-0.7,0.1c-0.6,0-1.1-0.2-1.5-0.6
		c-0.4-0.4-0.5-0.9-0.5-1.6c0-0.5,0.1-0.9,0.2-1.2c0.2-0.3,0.3-0.5,0.5-0.7c0.2-0.1,0.5-0.3,0.8-0.4c0.9-0.3,1.9-0.6,3-0.8
		c0-0.7-0.1-1.2-0.4-1.6c-0.3-0.4-0.8-0.5-1.4-0.5c-0.2,0-0.5,0-0.7,0.1c-0.1,0-0.2,0.1-0.3,0.2l-0.4,0.9l-0.6-0.1l0.1-1.1
		c0.4-0.3,0.8-0.5,1.2-0.8c0.4-0.2,0.7-0.3,0.8-0.4c0.2-0.1,0.5-0.1,0.9-0.1c0.6,0,1.1,0.1,1.6,0.3c0.4,0.2,0.7,0.4,0.9,0.6
		c0.2,0.2,0.3,0.5,0.4,0.8c0.1,0.3,0.1,0.6,0.1,1.1c0,0.2,0,0.7,0,1.4c0,0.5,0,0.9,0,1.3c0,1,0,1.6,0.1,1.9c0,0.1,0.1,0.2,0.1,0.2
		C192,43.9,192.3,43.9,192.7,44"/>
	<path class="st0" d="M198.4,43.9v0.7c-0.7,0-1.5-0.1-2.3-0.1s-1.7,0-2.6,0.1v-0.7c0.6,0,0.9,0,1-0.1c0.1,0,0.2-0.1,0.2-0.1
		c0,0,0.1-0.1,0.1-0.2c0-0.2,0.1-0.7,0.1-1.6c0-0.9,0-1.7,0-2.4v-2.9c0-0.9,0-1.7-0.1-2.5c0-0.4-0.1-0.6-0.1-0.7
		c0,0-0.1-0.1-0.1-0.1c-0.1,0-0.2-0.1-0.3-0.1c-0.1,0-0.3,0-0.8,0v-0.6c0.7-0.1,1.3-0.2,1.7-0.2c0.4-0.1,1-0.2,1.7-0.5l0.2,0.1
		l-0.1,1.7c0,1,0,2.2-0.1,3.6v2.2c0,0.8,0,1.5,0,1.9c0,1,0,1.7,0,1.9c0,0.2,0,0.4,0.1,0.4c0,0,0,0.1,0.1,0.1c0.1,0,0.1,0.1,0.3,0.1
		C197.5,43.9,197.8,43.9,198.4,43.9"/>
	<path class="st0" d="M209.3,32.5v0.8c-0.6,0-0.9,0-1,0.1c-0.1,0-0.2,0.1-0.2,0.1c0,0-0.1,0.1-0.1,0.1c0,0.1-0.1,0.3-0.1,0.6
		c0,0.1,0,0.4,0,0.8c0,1.4,0,2.2,0,2.3v3.5l0,1.6c0,0.6,0,1,0.1,1.2c0,0.1,0.1,0.1,0.1,0.2c0.1,0,0.1,0.1,0.3,0.1c0.1,0,0.5,0,1,0.1
		v0.8c-0.9,0-1.9-0.1-3-0.1c-0.9,0-1.8,0-2.5,0.1v-0.8c0.6,0,0.9,0,1-0.1c0.1,0,0.2-0.1,0.2-0.1c0,0,0.1-0.1,0.1-0.1
		c0-0.1,0-0.3,0.1-0.8c0-0.7,0.1-1.3,0.1-1.9v-3.6c0-1.1,0-1.9,0-2.2c0-0.7-0.1-1.2-0.1-1.4c0-0.1,0-0.1-0.1-0.2
		c0,0-0.1-0.1-0.2-0.1c-0.1,0-0.5,0-1.1-0.1v-0.8c0.7,0,1.6,0.1,2.5,0.1C207.3,32.6,208.3,32.6,209.3,32.5"/>
	<path class="st0" d="M220.1,44v0.6c-0.8,0-1.4-0.1-1.9-0.1c-0.6,0-1.1,0-1.5,0.1l-0.2-0.2c0-0.1,0-0.6,0.1-1.5l0-1.4v-0.7
		c0-1,0-1.7-0.1-2c-0.1-0.3-0.2-0.6-0.5-0.8c-0.2-0.2-0.6-0.3-1-0.3c-0.4,0-0.7,0.1-1,0.3c-0.3,0.2-0.4,0.4-0.5,0.6
		c0,0.1-0.1,0.6-0.1,1.4v1.5c0,0.4,0,0.9,0,1.5c0,0.3,0,0.4,0.1,0.5c0,0.1,0.1,0.1,0.1,0.1c0.1,0,0.2,0.1,0.4,0.1
		c0.1,0,0.3,0,0.7,0.1v0.7c-0.6,0-1.4,0-2.3,0c-1.1,0-1.9,0-2.5,0v-0.7c0.4,0,0.8,0,0.9-0.1c0.1,0,0.1-0.1,0.2-0.1
		c0.1-0.1,0.1-0.3,0.1-0.6l0-0.8c0-0.2,0-0.4,0-0.8v-1.1c0-0.5,0-1.1,0-1.9c0-0.4,0-0.6-0.1-0.6c0,0-0.1-0.1-0.2-0.1
		c-0.1,0-0.4-0.1-1-0.1V37c1-0.2,1.7-0.3,2.1-0.4c0.3-0.1,0.7-0.2,1.1-0.4l0.2,0.1v1.4l1.6-1.3c0.2-0.1,0.3-0.1,0.5-0.2
		c0.1,0,0.3,0,0.5,0c0.6,0,1.1,0.1,1.4,0.2c0.3,0.1,0.6,0.3,0.8,0.6c0.2,0.3,0.4,0.5,0.4,0.8c0.1,0.3,0.1,0.7,0.1,1.3
		c0,0.7,0,1.1,0,1.3c0,0.1,0,0.2,0,0.3l0,0.9c0,1,0,1.6,0,1.8c0,0.2,0.1,0.4,0.2,0.4c0.1,0.1,0.3,0.1,0.5,0.1
		C219.7,43.9,219.9,43.9,220.1,44"/>
	<path class="st0" d="M230.8,44v0.6c-0.8,0-1.4-0.1-1.9-0.1c-0.6,0-1.1,0-1.5,0.1l-0.2-0.2c0-0.1,0-0.6,0.1-1.5l0-1.4v-0.7
		c0-1,0-1.7-0.1-2c-0.1-0.3-0.2-0.6-0.5-0.8c-0.2-0.2-0.6-0.3-1-0.3c-0.4,0-0.7,0.1-1,0.3c-0.3,0.2-0.4,0.4-0.5,0.6
		c0,0.1-0.1,0.6-0.1,1.4v1.5c0,0.4,0,0.9,0,1.5c0,0.3,0,0.4,0.1,0.5c0,0.1,0.1,0.1,0.1,0.1c0.1,0,0.2,0.1,0.4,0.1
		c0.1,0,0.3,0,0.7,0.1v0.7c-0.6,0-1.4,0-2.3,0c-1.1,0-1.9,0-2.5,0v-0.7c0.4,0,0.8,0,0.9-0.1c0.1,0,0.1-0.1,0.2-0.1
		c0.1-0.1,0.1-0.3,0.1-0.6l0-0.8c0-0.2,0-0.4,0-0.8v-1.1c0-0.5,0-1.1,0-1.9c0-0.4,0-0.6-0.1-0.6c0,0-0.1-0.1-0.2-0.1
		c-0.1,0-0.4-0.1-1-0.1V37c1-0.2,1.7-0.3,2.1-0.4c0.3-0.1,0.7-0.2,1.1-0.4l0.2,0.1v1.4l1.6-1.3c0.2-0.1,0.3-0.1,0.5-0.2
		c0.1,0,0.3,0,0.5,0c0.6,0,1.1,0.1,1.4,0.2c0.3,0.1,0.6,0.3,0.8,0.6c0.2,0.3,0.4,0.5,0.4,0.8c0.1,0.3,0.1,0.7,0.1,1.3
		c0,0.7,0,1.1,0,1.3c0,0.1,0,0.2,0,0.3l0,0.9c0,1,0,1.6,0,1.8c0,0.2,0.1,0.4,0.2,0.4c0.1,0.1,0.3,0.1,0.5,0.1
		C230.4,43.9,230.5,43.9,230.8,44"/>
	<path class="st0" d="M234.1,40.1c0,1.5,0.2,2.6,0.7,3.3c0.3,0.4,0.7,0.6,1.3,0.6c0.5,0,0.8-0.2,1.1-0.5c0.4-0.4,0.6-1.3,0.6-2.5
		c0-0.9-0.1-1.6-0.2-2.3c-0.1-0.6-0.4-1.1-0.6-1.3c-0.3-0.2-0.6-0.4-1-0.4c-0.3,0-0.6,0.1-0.9,0.3c-0.3,0.2-0.5,0.5-0.6,0.9
		C234.1,38.7,234.1,39.3,234.1,40.1 M231.7,40.5c0-1,0.2-1.8,0.5-2.4c0.3-0.6,0.8-1.1,1.5-1.5c0.7-0.3,1.4-0.5,2.3-0.5
		c1.3,0,2.3,0.3,3,1c0.7,0.7,1,1.7,1,3.1c0,0.8-0.1,1.5-0.3,2c-0.2,0.6-0.5,1-0.8,1.4c-0.3,0.3-0.7,0.6-1.1,0.8
		c-0.6,0.3-1.4,0.4-2.2,0.4c-1.3,0-2.3-0.4-3-1.1C232,43.1,231.7,42,231.7,40.5"/>
	<path class="st0" d="M244.6,44.7c-0.3-0.8-0.6-1.7-1.1-2.7l-1.1-2.9c-0.1-0.3-0.3-0.7-0.6-1.3c-0.1-0.2-0.2-0.3-0.3-0.4
		c-0.2-0.1-0.4-0.1-0.8-0.1v-0.7c0.8,0,1.6,0,2.4,0c0.7,0,1.5,0,2.2,0v0.7c-0.3,0-0.6,0-0.9,0.1c-0.1,0-0.1,0-0.2,0.1
		c0,0-0.1,0.1-0.1,0.2l0,0.2l0.3,1l0.7,1.8l0.3,0.8c0.2,0.5,0.3,0.9,0.4,1l0.6-1.3l0.5-1.3c0.3-0.8,0.6-1.4,0.7-1.8
		c0.1-0.2,0.1-0.3,0.1-0.4c0-0.1,0-0.2-0.1-0.2c-0.1,0-0.4-0.1-1-0.1v-0.7c0.6,0,1.2,0,1.7,0c0.5,0,1.1,0,1.8,0v0.7
		c-0.4,0.1-0.7,0.1-0.8,0.1c-0.1,0-0.1,0.1-0.2,0.2c-0.1,0.2-0.4,0.7-0.8,1.6l-0.8,1.8l-0.3,0.8c-0.1,0.3-0.3,0.7-0.5,1.2
		c-0.3,0.9-0.6,1.5-0.7,1.8H244.6z"/>
	<path class="st0" d="M255.5,40.4c-0.5,0.1-0.9,0.2-1.3,0.4c-0.4,0.1-0.7,0.3-0.8,0.5c-0.2,0.2-0.2,0.5-0.2,0.8
		c0,0.4,0.1,0.7,0.3,0.9c0.2,0.2,0.4,0.3,0.7,0.3c0.3,0,0.5-0.1,0.8-0.2c0.3-0.2,0.5-0.3,0.6-0.6V40.4z M258.7,44v0.6
		c-0.7,0-1.3,0-1.8,0c-0.5,0-1,0-1.4,0l-0.1-0.1l0.1-1.1c-0.2,0.1-0.8,0.6-1.8,1.4c-0.3,0.1-0.5,0.1-0.7,0.1c-0.6,0-1.1-0.2-1.5-0.6
		c-0.4-0.4-0.5-0.9-0.5-1.6c0-0.5,0.1-0.9,0.2-1.2c0.2-0.3,0.3-0.5,0.5-0.7c0.2-0.1,0.5-0.3,0.8-0.4c0.9-0.3,1.9-0.6,3-0.8
		c0-0.7-0.1-1.2-0.4-1.6c-0.3-0.4-0.8-0.5-1.4-0.5c-0.2,0-0.5,0-0.7,0.1c-0.1,0-0.2,0.1-0.3,0.2l-0.4,0.9l-0.6-0.1l0.1-1.1
		c0.4-0.3,0.8-0.5,1.2-0.8c0.4-0.2,0.7-0.3,0.8-0.4c0.2-0.1,0.5-0.1,0.9-0.1c0.6,0,1.1,0.1,1.6,0.3c0.4,0.2,0.7,0.4,0.9,0.6
		c0.2,0.2,0.3,0.5,0.4,0.8c0.1,0.3,0.1,0.6,0.1,1.1c0,0.2,0,0.7,0,1.4c0,0.5,0,0.9,0,1.3c0,1,0,1.6,0.1,1.9c0,0.1,0.1,0.2,0.1,0.2
		C257.9,43.9,258.2,43.9,258.7,44"/>
	<path class="st0" d="M259.3,38v-0.4l0.8-0.5c0.1-0.1,0.2-0.2,0.4-0.3v-1.2c0-0.4,0-0.9-0.1-1.5c0.6-0.2,0.9-0.3,1.1-0.4
		c0,0,0.4-0.2,1.1-0.5l0.2,0.2l-0.1,0.9l-0.1,1l-0.1,1.5h0.3c0.8,0,1.3,0,1.7-0.1l-0.1,1.2c-0.1,0-0.1,0-0.2,0l-0.8,0h-0.8v2.9
		c0,0.9,0,1.4,0,1.6c0,0.3,0.1,0.5,0.3,0.6c0.2,0.2,0.4,0.2,0.7,0.2c0.2,0,0.4,0,0.5,0c0.1,0,0.3,0,0.5-0.1l0.1,0.3l-0.3,0.3
		c-0.3,0.3-0.5,0.5-0.7,0.7c-0.2,0.1-0.4,0.2-0.6,0.2c-0.2,0-0.4,0-0.5,0c-0.7,0-1.2-0.2-1.6-0.5c-0.4-0.3-0.6-0.8-0.6-1.3l0-2.9V38
		h-0.2C259.9,38,259.6,38,259.3,38"/>
	<path class="st0" d="M267.6,32.1c0.4,0,0.7,0.1,0.9,0.4c0.3,0.3,0.4,0.6,0.4,0.9c0,0.4-0.1,0.7-0.4,0.9c-0.3,0.3-0.6,0.4-0.9,0.4
		c-0.4,0-0.7-0.1-0.9-0.4c-0.3-0.3-0.4-0.6-0.4-0.9c0-0.4,0.1-0.7,0.4-0.9C267,32.2,267.3,32.1,267.6,32.1 M265.3,44.6V44
		c0.6,0,1-0.1,1.1-0.2c0.1-0.1,0.1-0.2,0.2-0.3c0.1-0.3,0.1-1.1,0.1-2.4c0-1.8,0-2.8-0.1-3.1c0-0.1-0.1-0.2-0.1-0.2
		c-0.1-0.1-0.5-0.1-1.2-0.1V37c0.9-0.1,1.5-0.2,2-0.3c0.4-0.1,0.9-0.3,1.5-0.5l0.2,0.1c-0.1,0.9-0.1,1.7-0.1,2.5v2.9
		c0,1,0,1.6,0.1,1.8c0,0.1,0.1,0.2,0.1,0.2c0.2,0.1,0.5,0.1,1.1,0.1v0.7c-0.8,0-1.7,0-2.7,0C266.6,44.6,265.9,44.6,265.3,44.6"/>
	<path class="st0" d="M273.5,40.1c0,1.5,0.2,2.6,0.7,3.3c0.3,0.4,0.7,0.6,1.3,0.6c0.5,0,0.8-0.2,1.1-0.5c0.4-0.4,0.6-1.3,0.6-2.5
		c0-0.9-0.1-1.6-0.2-2.3c-0.1-0.6-0.4-1.1-0.6-1.3c-0.3-0.2-0.6-0.4-1-0.4c-0.3,0-0.6,0.1-0.9,0.3c-0.3,0.2-0.5,0.5-0.6,0.9
		C273.6,38.7,273.5,39.3,273.5,40.1 M271.1,40.5c0-1,0.2-1.8,0.5-2.4c0.3-0.6,0.8-1.1,1.5-1.5c0.7-0.3,1.4-0.5,2.3-0.5
		c1.3,0,2.3,0.3,3,1c0.7,0.7,1,1.7,1,3.1c0,0.8-0.1,1.5-0.3,2c-0.2,0.6-0.5,1-0.8,1.4c-0.3,0.3-0.7,0.6-1.1,0.8
		c-0.6,0.3-1.4,0.4-2.2,0.4c-1.3,0-2.3-0.4-3-1.1C271.5,43.1,271.1,42,271.1,40.5"/>
	<path class="st0" d="M290.5,44v0.6c-0.8,0-1.4-0.1-1.9-0.1c-0.6,0-1.1,0-1.5,0.1l-0.2-0.2c0-0.1,0-0.6,0.1-1.5l0-1.4v-0.7
		c0-1,0-1.7-0.1-2c-0.1-0.3-0.2-0.6-0.5-0.8c-0.2-0.2-0.6-0.3-1-0.3c-0.4,0-0.7,0.1-1,0.3c-0.3,0.2-0.4,0.4-0.5,0.6
		c0,0.1-0.1,0.6-0.1,1.4v1.5c0,0.4,0,0.9,0,1.5c0,0.3,0,0.4,0.1,0.5c0,0.1,0.1,0.1,0.1,0.1c0.1,0,0.2,0.1,0.4,0.1
		c0.1,0,0.3,0,0.7,0.1v0.7c-0.6,0-1.4,0-2.3,0c-1.1,0-1.9,0-2.5,0v-0.7c0.4,0,0.8,0,0.9-0.1c0.1,0,0.1-0.1,0.2-0.1
		c0.1-0.1,0.1-0.3,0.1-0.6l0-0.8c0-0.2,0-0.4,0-0.8v-1.1c0-0.5,0-1.1,0-1.9c0-0.4,0-0.6-0.1-0.6c0,0-0.1-0.1-0.2-0.1
		c-0.1,0-0.4-0.1-1-0.1V37c1-0.2,1.7-0.3,2.1-0.4c0.3-0.1,0.7-0.2,1.1-0.4l0.2,0.1v1.4l1.6-1.3c0.2-0.1,0.3-0.1,0.5-0.2
		c0.1,0,0.3,0,0.5,0c0.6,0,1.1,0.1,1.4,0.2c0.3,0.1,0.6,0.3,0.8,0.6c0.2,0.3,0.4,0.5,0.4,0.8c0.1,0.3,0.1,0.7,0.1,1.3
		c0,0.7,0,1.1,0,1.3c0,0.1,0,0.2,0,0.3l0,0.9c0,1,0,1.6,0,1.8c0,0.2,0.1,0.4,0.2,0.4c0.1,0.1,0.3,0.1,0.5,0.1
		C290.1,43.9,290.3,43.9,290.5,44"/>
	<path class="st0" d="M300.2,37c0.6-0.4,1-0.8,1.2-1.1c0.3-0.4,0.4-0.8,0.4-1.2c0-0.4-0.1-0.7-0.3-0.9c-0.2-0.2-0.5-0.3-0.8-0.3
		c-0.3,0-0.6,0.1-0.8,0.4c-0.2,0.2-0.3,0.6-0.3,1C299.6,35.3,299.8,36.1,300.2,37 M298.9,38.6c-0.3,0.2-0.5,0.4-0.7,0.7
		c-0.2,0.3-0.3,0.6-0.3,1c0,0.6,0.2,1.1,0.5,1.6c0.3,0.5,0.7,0.9,1.2,1.2c0.5,0.3,1,0.4,1.5,0.4c0.6,0,1.2-0.2,1.7-0.6
		c-0.8-0.7-1.6-1.4-2.1-2.1C300,40.4,299.5,39.6,298.9,38.6 M309.2,42.4l0.3,0.6c-0.2,0.2-0.5,0.5-0.8,0.9c-0.4,0.4-0.6,0.7-0.8,0.9
		c-0.4,0.1-0.8,0.1-1,0.1c-0.5,0-1-0.1-1.4-0.2c-0.6-0.2-1.2-0.6-1.9-1c-0.5,0.4-1.1,0.7-1.7,0.9c-0.6,0.2-1.3,0.3-2,0.3
		c-1.3,0-2.3-0.4-3-1.1c-0.7-0.7-1-1.5-1-2.4c0-0.7,0.2-1.2,0.5-1.7c0.5-0.7,1.2-1.3,2.3-1.8c-0.2-0.5-0.4-0.9-0.5-1.3
		c-0.1-0.4-0.1-0.7-0.1-1.1c0-0.5,0.1-0.9,0.3-1.1l0.8-1c0.4-0.4,0.6-0.7,0.8-0.8c0.5-0.3,1-0.4,1.5-0.4c0.4,0,0.7,0.1,1.1,0.2
		c0.3,0.2,0.5,0.4,0.7,0.7c0.2,0.3,0.2,0.6,0.2,1c0,0.5-0.2,1-0.5,1.6c-0.4,0.5-1.1,1.2-2.3,1.9c0.5,0.8,1.1,1.6,1.8,2.3
		c0.7,0.7,1.3,1.3,1.9,1.8c0.2-0.3,0.3-0.6,0.4-0.9c0.1-0.3,0.1-0.5,0.1-0.8c0-0.2,0-0.4-0.1-0.7c-0.1-0.2-0.1-0.4-0.3-0.6h-1.6
		l-0.1-0.1c0.1-0.2,0.2-0.3,0.3-0.4l0.3-0.6c1.1,0,1.8,0,2,0c1.6,0,2.8,0,3.6-0.1l0.1,0.1c-0.1,0.3-0.2,0.6-0.2,0.7
		c0,0.1-0.1,0.3-0.1,0.5l-0.1,0.1c-0.7-0.1-1.1-0.1-1.2-0.1c-0.2,0-0.7,0-1.3,0c0.1,0.3,0.1,0.5,0.1,0.7c0,0.4-0.1,0.9-0.3,1.3
		c-0.2,0.4-0.5,0.9-0.9,1.4c0.4,0.3,0.8,0.5,1.3,0.6c0.5,0.1,1,0.2,1.4,0.2c0.1,0,0.2,0,0.3,0c0.1,0,0.2-0.1,0.3-0.1L309.2,42.4z"/>
	<path class="st0" d="M316.9,44.6v-0.7c0.7,0,1.1-0.1,1.2-0.1c0.1-0.1,0.2-0.2,0.3-0.3c0.1-0.2,0.1-1,0.1-2.2V36c0-1.4,0-2.2,0-2.4
		h-1.2c-0.6,0-1.2,0-1.6,0.1c-0.2,0-0.3,0-0.3,0.1c0,0-0.1,0.1-0.1,0.3c-0.1,0.4-0.1,0.9-0.1,1.4h-0.7c0-1.2,0-1.8,0-2
		c0-0.3,0-0.5-0.1-0.8l0.1-0.1c0.3,0,0.6,0,0.9,0.1c0.5,0,1.4,0,2.9,0h3.5c1.5,0,2.4,0,2.9,0c0.3,0,0.5,0,0.8-0.1l0.1,0.1
		c-0.1,0.4-0.1,0.7-0.1,0.9c0,0,0,0.7,0,1.9h-0.7c0-0.4,0-0.9-0.1-1.3c0-0.2-0.1-0.3-0.1-0.4c0,0-0.1,0-0.3-0.1
		c-0.5,0-1-0.1-1.7-0.1H321c0,0.2,0,1,0,2.4v5.2c0,1.2,0,2,0.1,2.2c0,0.1,0.1,0.3,0.3,0.3c0.1,0.1,0.5,0.1,1.2,0.1v0.7
		c-1.1-0.1-2.1-0.1-2.8-0.1C318.9,44.5,317.9,44.6,316.9,44.6"/>
	<path class="st0" d="M329.4,39.7c0-0.9-0.1-1.6-0.4-1.9c-0.3-0.4-0.6-0.5-1.1-0.5c-0.4,0-0.8,0.2-1.1,0.6c-0.3,0.4-0.4,1-0.4,1.9
		c0.3,0.1,0.9,0.1,1.7,0.1C328.6,39.8,329.1,39.7,329.4,39.7 M331.4,43.3l-0.4,0.8c-0.5,0.3-1,0.5-1.5,0.6c-0.4,0.1-0.8,0.1-1.3,0.1
		c-0.6,0-1.1-0.1-1.5-0.2c-0.4-0.1-0.8-0.3-1.1-0.5c-0.3-0.2-0.6-0.5-0.8-0.8c-0.2-0.3-0.4-0.7-0.5-1.2c-0.1-0.4-0.2-0.9-0.2-1.4
		c0-0.8,0.1-1.4,0.3-2c0.1-0.4,0.3-0.7,0.5-0.9c0.1-0.1,0.4-0.3,0.9-0.6c0.5-0.3,0.8-0.5,1.1-0.6c0.4-0.2,0.9-0.3,1.4-0.3
		c0.8,0,1.4,0.2,1.9,0.5c0.5,0.3,0.8,0.7,1.1,1.2c0.2,0.5,0.3,1.1,0.3,1.8c0,0.2,0,0.3,0,0.5c-0.1,0-0.4,0.1-0.7,0.2
		c-0.4,0.1-0.7,0.1-0.8,0.1c-0.4,0-1,0.1-1.7,0.1c-0.7,0-1.1,0-1.2,0c-0.1,0-0.2,0-0.3,0h-0.6c0,0.9,0.3,1.6,0.8,2.2
		c0.5,0.5,1.2,0.8,1.9,0.8c0.3,0,0.6,0,0.9-0.1c0.3-0.1,0.6-0.2,1.1-0.4L331.4,43.3z"/>
	<path class="st0" d="M339.5,43.5l-0.4,0.8c-0.5,0.2-0.9,0.4-1.2,0.5c-0.3,0.1-0.7,0.1-1.1,0.1c-0.9,0-1.7-0.2-2.3-0.6
		c-0.6-0.4-1-0.9-1.3-1.6c-0.2-0.5-0.3-1.1-0.3-1.9c0-0.6,0.1-1.1,0.2-1.5c0.1-0.4,0.3-0.7,0.5-1c0.1-0.2,0.3-0.4,0.6-0.6l1.3-0.8
		c0.4-0.3,0.8-0.5,0.9-0.5c0.3-0.1,0.6-0.2,1.1-0.2c0.4,0,0.7,0,1,0.1c0.3,0.1,0.6,0.2,0.9,0.3l0.1,0.1l-0.2,1.4
		c0,0.1,0,0.5-0.1,1.2h-0.7c0-0.5-0.1-0.9-0.1-1.1c-0.1-0.2-0.3-0.4-0.6-0.5c-0.3-0.1-0.6-0.2-0.9-0.2c-0.4,0-0.8,0.1-1,0.2
		c-0.3,0.2-0.4,0.4-0.6,0.8c-0.1,0.4-0.2,0.8-0.2,1.4c0,0.7,0.1,1.4,0.4,1.9c0.2,0.6,0.6,1,1,1.3c0.4,0.3,0.9,0.4,1.5,0.4
		c0.3,0,0.5,0,0.8-0.1c0.2-0.1,0.5-0.1,0.7-0.3L339.5,43.5z"/>
	<path class="st0" d="M350.1,43.9v0.7c-0.9,0-1.4,0-1.7,0c-0.2,0-0.8,0-1.8,0l-0.1-0.1l0.1-1.8c0-0.3,0-0.7,0-1.1v-1.7
		c0-0.8-0.1-1.3-0.4-1.6c-0.3-0.3-0.6-0.5-1.1-0.5c-0.4,0-0.7,0.1-0.9,0.3c-0.3,0.2-0.5,0.4-0.6,0.7c-0.1,0.1-0.1,0.3-0.1,0.7v1.1
		c0,0.4,0,1,0,1.7c0,0.7,0,1.1,0.1,1.2c0,0.1,0,0.1,0.1,0.2c0,0,0.1,0.1,0.1,0.1c0.1,0,0.2,0.1,0.4,0.1l0.7,0v0.7
		c-1.6,0-2.4-0.1-2.6-0.1l-2.1,0.1v-0.7c0.5,0,0.8,0,0.9-0.1c0.1,0,0.2-0.1,0.2-0.1c0,0,0.1-0.1,0.1-0.2c0-0.2,0.1-0.7,0.1-1.6
		c0-0.9,0-1.7,0-2.4v-2.8c0-0.9,0-1.8-0.1-2.5c0-0.4,0-0.6-0.1-0.7c0,0-0.1-0.1-0.1-0.1c-0.1,0-0.2-0.1-0.3-0.1
		c-0.1,0-0.3,0-0.8-0.1v-0.6c0.8-0.1,1.4-0.2,1.8-0.3c0.4-0.1,0.9-0.2,1.6-0.4l0.2,0.1l-0.1,2.1c0,1,0,2,0,2.9v0.8l1.5-1.3
		c0.4-0.2,0.8-0.2,1.3-0.2c0.5,0,0.9,0.1,1.2,0.2c0.4,0.1,0.6,0.3,0.8,0.6c0.2,0.2,0.3,0.5,0.4,0.8c0.1,0.3,0.1,0.7,0.1,1.1
		c0,0.2,0,0.6,0,1.4c0,0.5,0,1,0,1.4c0,1.1,0,1.7,0.1,1.9c0,0.1,0.1,0.2,0.2,0.3C349.3,43.9,349.6,43.9,350.1,43.9"/>
	<path class="st0" d="M360.9,44v0.6c-0.8,0-1.4-0.1-1.9-0.1c-0.6,0-1.1,0-1.5,0.1l-0.2-0.2c0-0.1,0-0.6,0.1-1.5l0-1.4v-0.7
		c0-1,0-1.7-0.1-2c-0.1-0.3-0.2-0.6-0.5-0.8c-0.2-0.2-0.6-0.3-1-0.3c-0.4,0-0.7,0.1-1,0.3c-0.3,0.2-0.4,0.4-0.5,0.6
		c0,0.1-0.1,0.6-0.1,1.4v1.5c0,0.4,0,0.9,0,1.5c0,0.3,0,0.4,0.1,0.5c0,0.1,0.1,0.1,0.1,0.1c0.1,0,0.2,0.1,0.4,0.1
		c0.1,0,0.3,0,0.7,0.1v0.7c-0.6,0-1.4,0-2.3,0c-1.1,0-1.9,0-2.5,0v-0.7c0.4,0,0.8,0,0.9-0.1c0.1,0,0.1-0.1,0.2-0.1
		c0.1-0.1,0.1-0.3,0.1-0.6l0-0.8c0-0.2,0-0.4,0-0.8v-1.1c0-0.5,0-1.1,0-1.9c0-0.4,0-0.6-0.1-0.6c0,0-0.1-0.1-0.2-0.1
		c-0.1,0-0.4-0.1-1-0.1V37c1-0.2,1.7-0.3,2.1-0.4c0.3-0.1,0.7-0.2,1.1-0.4l0.2,0.1v1.4l1.6-1.3c0.2-0.1,0.3-0.1,0.5-0.2
		c0.1,0,0.3,0,0.5,0c0.6,0,1.1,0.1,1.4,0.2c0.3,0.1,0.6,0.3,0.8,0.6c0.2,0.3,0.4,0.5,0.4,0.8c0.1,0.3,0.1,0.7,0.1,1.3
		c0,0.7,0,1.1,0,1.3c0,0.1,0,0.2,0,0.3l0,0.9c0,1,0,1.6,0,1.8c0,0.2,0.1,0.4,0.2,0.4c0.1,0.1,0.3,0.1,0.5,0.1
		C360.5,43.9,360.7,43.9,360.9,44"/>
	<path class="st0" d="M364.2,40.1c0,1.5,0.2,2.6,0.7,3.3c0.3,0.4,0.7,0.6,1.3,0.6c0.5,0,0.8-0.2,1.1-0.5c0.4-0.4,0.6-1.3,0.6-2.5
		c0-0.9-0.1-1.6-0.2-2.3c-0.1-0.6-0.4-1.1-0.6-1.3c-0.3-0.2-0.6-0.4-1-0.4c-0.3,0-0.6,0.1-0.9,0.3c-0.3,0.2-0.5,0.5-0.6,0.9
		C364.3,38.7,364.2,39.3,364.2,40.1 M361.8,40.5c0-1,0.2-1.8,0.5-2.4c0.3-0.6,0.8-1.1,1.5-1.5c0.7-0.3,1.4-0.5,2.3-0.5
		c1.3,0,2.3,0.3,3,1c0.7,0.7,1,1.7,1,3.1c0,0.8-0.1,1.5-0.3,2c-0.2,0.6-0.5,1-0.8,1.4c-0.3,0.3-0.7,0.6-1.1,0.8
		c-0.6,0.3-1.4,0.4-2.2,0.4c-1.3,0-2.3-0.4-3-1.1C362.2,43.1,361.8,42,361.8,40.5"/>
	<path class="st0" d="M376.1,43.9v0.7c-0.7,0-1.5-0.1-2.3-0.1s-1.7,0-2.6,0.1v-0.7c0.6,0,0.9,0,1-0.1c0.1,0,0.2-0.1,0.2-0.1
		c0,0,0.1-0.1,0.1-0.2c0-0.2,0.1-0.7,0.1-1.6c0-0.9,0-1.7,0-2.4v-2.9c0-0.9,0-1.7-0.1-2.5c0-0.4-0.1-0.6-0.1-0.7
		c0,0-0.1-0.1-0.1-0.1c-0.1,0-0.2-0.1-0.3-0.1c-0.1,0-0.3,0-0.8,0v-0.6c0.7-0.1,1.3-0.2,1.7-0.2c0.4-0.1,1-0.2,1.7-0.5l0.2,0.1
		l-0.1,1.7c0,1,0,2.2-0.1,3.6v2.2c0,0.8,0,1.5,0,1.9c0,1,0,1.7,0,1.9c0,0.2,0,0.4,0.1,0.4c0,0,0,0.1,0.1,0.1c0.1,0,0.1,0.1,0.3,0.1
		C375.3,43.9,375.6,43.9,376.1,43.9"/>
	<path class="st0" d="M379.6,40.1c0,1.5,0.2,2.6,0.7,3.3c0.3,0.4,0.7,0.6,1.3,0.6c0.5,0,0.8-0.2,1.1-0.5c0.4-0.4,0.6-1.3,0.6-2.5
		c0-0.9-0.1-1.6-0.2-2.3c-0.1-0.6-0.4-1.1-0.6-1.3c-0.3-0.2-0.6-0.4-1-0.4c-0.3,0-0.6,0.1-0.9,0.3c-0.3,0.2-0.5,0.5-0.6,0.9
		C379.7,38.7,379.6,39.3,379.6,40.1 M377.2,40.5c0-1,0.2-1.8,0.5-2.4c0.3-0.6,0.8-1.1,1.5-1.5c0.7-0.3,1.4-0.5,2.3-0.5
		c1.3,0,2.3,0.3,3,1c0.7,0.7,1,1.7,1,3.1c0,0.8-0.1,1.5-0.3,2c-0.2,0.6-0.5,1-0.8,1.4c-0.3,0.3-0.7,0.6-1.1,0.8
		c-0.6,0.3-1.4,0.4-2.2,0.4c-1.3,0-2.3-0.4-3-1.1C377.5,43.1,377.2,42,377.2,40.5"/>
	<path class="st0" d="M389.3,38.9c0,0.8,0.1,1.4,0.4,1.7c0.3,0.3,0.6,0.5,1.1,0.5c0.5,0,0.9-0.2,1.1-0.6c0.2-0.3,0.3-0.7,0.3-1.3
		c0-0.8-0.1-1.4-0.4-1.7c-0.3-0.3-0.6-0.5-1.1-0.5c-0.4,0-0.8,0.1-1,0.4C389.5,37.7,389.3,38.2,389.3,38.9 M389.6,44.8
		c-0.5,0.3-0.8,0.6-0.9,0.8c-0.2,0.3-0.2,0.5-0.2,0.8c0,0.5,0.2,1,0.6,1.3c0.4,0.4,1.1,0.5,1.9,0.5c0.9,0,1.6-0.2,2.1-0.6
		c0.5-0.4,0.7-1,0.7-1.6c0-0.3,0-0.5-0.1-0.7c-0.1-0.2-0.2-0.3-0.4-0.4c-0.2-0.1-0.4-0.1-0.7-0.2c-0.3,0-1,0-2.1,0
		C390.2,44.8,390,44.8,389.6,44.8 M387.8,42.6l1.2-0.9c-0.4-0.2-0.8-0.3-1-0.5c-0.3-0.2-0.5-0.5-0.6-0.8c-0.2-0.3-0.2-0.7-0.2-1.1
		c0-0.5,0.1-1.1,0.4-1.5c0.3-0.5,0.7-0.9,1.3-1.1c0.6-0.3,1.3-0.4,2.1-0.4c0.5,0,1,0.1,1.5,0.2c0.5,0.1,0.8,0.3,1.2,0.5
		c0.3,0,0.6,0,0.7,0c0.2,0,0.6,0,1.4-0.1l-0.1,1.1h-1.4c0.1,0.3,0.1,0.6,0.1,0.8c0,0.6-0.2,1.2-0.5,1.6c-0.3,0.5-0.8,0.8-1.4,1.1
		c-0.6,0.3-1.2,0.4-1.9,0.4c-0.2,0-0.4,0-0.8,0c-0.2,0.1-0.3,0.2-0.4,0.4c-0.1,0.1-0.1,0.3-0.1,0.4c0,0.1,0,0.2,0.1,0.3
		c0.1,0.1,0.2,0.2,0.3,0.2c0.2,0,0.7,0.1,1.4,0.1l2.1-0.1c0.6,0,1.1,0.1,1.4,0.2c0.3,0.1,0.6,0.4,0.8,0.7c0.2,0.3,0.3,0.7,0.3,1.2
		c0,0.7-0.2,1.4-0.5,2c-0.3,0.6-0.8,1.1-1.5,1.4c-0.9,0.5-1.9,0.7-3.1,0.7c-0.9,0-1.7-0.1-2.3-0.4c-0.6-0.3-1-0.6-1.2-0.9
		c-0.2-0.4-0.4-0.7-0.4-1.2c0-0.2,0-0.5,0.1-0.7c0.1-0.2,0.2-0.3,0.3-0.4c0.1-0.1,0.3-0.2,0.6-0.4c0.6-0.3,0.9-0.5,0.9-0.5
		c-0.3,0-0.6-0.1-0.8-0.3c-0.2-0.2-0.3-0.4-0.3-0.7c0-0.1,0-0.3,0.1-0.5C387.7,42.9,387.7,42.7,387.8,42.6"/>
	<path class="st0" d="M396.3,49c0.1-0.4,0.2-0.7,0.2-0.9l0.1-0.9l0.2,0c0.1,0.1,0.3,0.3,0.5,0.4c0.2,0.1,0.5,0.1,0.7,0.1
		c0.3,0,0.6-0.1,0.8-0.3c0.3-0.2,0.5-0.7,0.8-1.3l0.3-0.8l-2.8-7.2c-0.2-0.4-0.3-0.7-0.5-0.8c-0.1-0.1-0.4-0.1-0.9-0.1v-0.7
		c0.6,0,1.3,0,2.1,0c1,0,1.8,0,2.6,0v0.7h-0.2c-0.4,0-0.6,0-0.7,0.1c-0.1,0.1-0.1,0.1-0.1,0.2c0,0.1,0,0.2,0.1,0.4l0.4,1.2l1.3,3.3
		l0.8-1.8c0.7-1.8,1.1-2.8,1.1-3.1c0-0.1,0-0.1,0-0.1c0,0-0.1-0.1-0.2-0.1c-0.2,0-0.5-0.1-0.8-0.1v-0.7c0.4,0,0.8,0,1.4,0
		c0.7,0,1.3,0,1.9,0v0.7h-0.1c-0.2,0-0.3,0-0.4,0.1c-0.1,0-0.2,0.1-0.2,0.2c-0.1,0.1-0.2,0.4-0.5,1c-0.3,0.7-0.6,1.3-0.8,1.8
		c-0.6,1.5-1.1,2.4-1.2,2.8l-1.4,3.4c-0.4,1-0.9,1.8-1.4,2.2c-0.5,0.4-1.1,0.7-1.7,0.7c-0.2,0-0.4,0-0.6-0.1
		C396.8,49.2,396.6,49.1,396.3,49"/>
	<rect x="68.4" y="11.6" class="st1" width="1.5" height="34.2"/>
	<polygon class="st0" points="41.4,37.2 41.4,29.2 48.8,29.2 48.8,23.9 41.4,23.9 41.4,16.4 49.5,16.4 49.5,19.3 54.9,19.3 
		54.9,11.2 33.4,11.2 33.4,16.4 35.4,16.4 35.4,37.2 33.4,37.2 33.4,42.5 43.3,42.5 43.3,37.2 	"/>
	<path class="st0" d="M30.6,30.6V16.4h2v-5.2h-9.9v5.2h1.9v12.5c0,5.2-0.6,7.7-4.4,7.7c-3.8,0-4.4-2.5-4.4-7.7V16.4h1.9v-5.2H7.9
		v5.2h2v14.2c0,3.1,0,5.7,1.5,7.9c1.6,2.6,4.6,4.2,8.9,4.2C27.9,42.8,30.6,38.8,30.6,30.6"/>
</g>
<text transform="matrix(1 0 0 1 79.3179 83.0338)" class="st1 st2 st3">Rumbaugh Lab</text>
</svg>
